<mxfile host="Electron" agent="Mozilla/5.0 (Windows NT 10.0; Win64; x64) AppleWebKit/537.36 (KHTML, like Gecko) draw.io/26.0.15 Chrome/132.0.6834.196 Electron/34.2.0 Safari/537.36" version="26.0.15">
  <diagram name="第 1 页" id="Ka-Vx9XKMTlzFheJ5ESn">
    <mxGraphModel dx="1408" dy="1561" grid="1" gridSize="10" guides="1" tooltips="1" connect="1" arrows="1" fold="1" page="1" pageScale="1" pageWidth="827" pageHeight="1169" math="0" shadow="0">
      <root>
        <mxCell id="0" />
        <mxCell id="1" parent="0" />
        <mxCell id="KlQcQ2Sua3LDSV9qlgWr-9" value="" style="rounded=0;whiteSpace=wrap;html=1;" vertex="1" parent="1">
          <mxGeometry x="-580" y="-360" width="350" height="70" as="geometry" />
        </mxCell>
        <mxCell id="qqEp2eh4nWf15jRmr-CD-6" value="Develop" style="rounded=0;whiteSpace=wrap;html=1;fontFamily=Georgia;fontSize=20;align=center;fontStyle=1" parent="1" vertex="1">
          <mxGeometry x="-680" y="-570" width="100" height="70" as="geometry" />
        </mxCell>
        <mxCell id="qqEp2eh4nWf15jRmr-CD-7" value="Build" style="rounded=0;whiteSpace=wrap;html=1;fontFamily=Georgia;fontSize=20;align=center;fontStyle=1" parent="1" vertex="1">
          <mxGeometry x="-680" y="-499.99500000000006" width="100" height="70" as="geometry" />
        </mxCell>
        <mxCell id="qqEp2eh4nWf15jRmr-CD-8" value="Ship" style="rounded=0;whiteSpace=wrap;html=1;fontFamily=Georgia;fontSize=20;align=center;fontStyle=1" parent="1" vertex="1">
          <mxGeometry x="-680" y="-430" width="100" height="70" as="geometry" />
        </mxCell>
        <mxCell id="qqEp2eh4nWf15jRmr-CD-9" value="Run" style="rounded=0;whiteSpace=wrap;html=1;fontFamily=Georgia;fontSize=20;align=center;fontStyle=1" parent="1" vertex="1">
          <mxGeometry x="-680" y="-360" width="100" height="70" as="geometry" />
        </mxCell>
        <mxCell id="KlQcQ2Sua3LDSV9qlgWr-6" value="" style="rounded=0;whiteSpace=wrap;html=1;" vertex="1" parent="1">
          <mxGeometry x="-580" y="-570" width="350" height="70" as="geometry" />
        </mxCell>
        <mxCell id="KlQcQ2Sua3LDSV9qlgWr-7" value="" style="rounded=0;whiteSpace=wrap;html=1;" vertex="1" parent="1">
          <mxGeometry x="-580" y="-500" width="350" height="70" as="geometry" />
        </mxCell>
        <mxCell id="KlQcQ2Sua3LDSV9qlgWr-8" value="" style="rounded=0;whiteSpace=wrap;html=1;" vertex="1" parent="1">
          <mxGeometry x="-580" y="-430" width="350" height="70" as="geometry" />
        </mxCell>
        <mxCell id="e4Tr5Wjy2GleVXx7RCsq-3" value="Linux" style="shape=image;verticalLabelPosition=bottom;labelBackgroundColor=none;verticalAlign=top;aspect=fixed;imageAspect=0;image=data:image/svg+xml,PHN2ZyB4bWxuczp4bGluaz0iaHR0cDovL3d3dy53My5vcmcvMTk5OS94bGluayIgeG1sbnM9Imh0dHA6Ly93d3cudzMub3JnLzIwMDAvc3ZnIiBwcmVzZXJ2ZUFzcGVjdFJhdGlvPSJ4TWlkWU1pZCIgdmVyc2lvbj0iMS4xIiB2aWV3Qm94PSIxMC4wNDM3MTA3MDg2MTgxNjQgMC44MzE3NTgzMjAzMzE1NzM1IDIzNS4wODE3MTA4MTU0Mjk3IDI4MC4wMjQxMzk0MDQyOTY5IiBoZWlnaHQ9IjI4MC4wMjQxMzk0MDQyOTY5IiB3aWR0aD0iMjM1LjA4MTcxMDgxNTQyOTciPiYjeGE7ICAgIDxkZWZzPiYjeGE7ICAgICAgICA8ZmlsdGVyIGlkPSJmaWx0ZXItMSIgZmlsdGVyVW5pdHM9Im9iamVjdEJvdW5kaW5nQm94IiBoZWlnaHQ9IjIwMCUiIHdpZHRoPSIyMDAlIiB5PSItNTAlIiB4PSItNTAlIj4mI3hhOyAgICAgICAgICAgIDxmZU9mZnNldCByZXN1bHQ9InNoYWRvd09mZnNldE91dGVyMSIgaW49IlNvdXJjZUFscGhhIiBkeT0iMCIgZHg9IjAiLz4mI3hhOyAgICAgICAgICAgIDxmZUdhdXNzaWFuQmx1ciByZXN1bHQ9InNoYWRvd0JsdXJPdXRlcjEiIGluPSJzaGFkb3dPZmZzZXRPdXRlcjEiIHN0ZERldmlhdGlvbj0iNi41Ii8+JiN4YTsgICAgICAgIDwvZmlsdGVyPiYjeGE7ICAgICAgICA8bGluZWFyR3JhZGllbnQgaWQ9ImxpbmVhckdyYWRpZW50LTIiIHkyPSI0MS4zNjM3MjM3JSIgeDI9IjUxLjA0NzM4MDQlIiB5MT0iMTE1LjI3NjE3NCUiIHgxPSI0OC41NDc3NDEyJSI+JiN4YTsgICAgICAgICAgICA8c3RvcCBvZmZzZXQ9IjAlIiBzdG9wLWNvbG9yPSIjRkZFRUQ3Ii8+JiN4YTsgICAgICAgICAgICA8c3RvcCBvZmZzZXQ9IjEwMCUiIHN0b3AtY29sb3I9IiNCREJGQzIiLz4mI3hhOyAgICAgICAgPC9saW5lYXJHcmFkaWVudD4mI3hhOyAgICAgICAgPGxpbmVhckdyYWRpZW50IGlkPSJsaW5lYXJHcmFkaWVudC0zIiB5Mj0iOTAuNTQyMjM0OSUiIHgyPSI0Ni4xNzUzOTU3JSIgeTE9IjIuNDA0MTA1NDUlIiB4MT0iNTQuNDA2NTQ2MyUiPiYjeGE7ICAgICAgICAgICAgPHN0b3Agb2Zmc2V0PSIwJSIgc3RvcC1vcGFjaXR5PSIwLjgiIHN0b3AtY29sb3I9IiNGRkZGRkYiLz4mI3hhOyAgICAgICAgICAgIDxzdG9wIG9mZnNldD0iMTAwJSIgc3RvcC1vcGFjaXR5PSIwIiBzdG9wLWNvbG9yPSIjRkZGRkZGIi8+JiN4YTsgICAgICAgIDwvbGluZWFyR3JhZGllbnQ+JiN4YTsgICAgICAgIDxsaW5lYXJHcmFkaWVudCBpZD0ibGluZWFyR3JhZGllbnQtNCIgeTI9IjkuNzQ3ODIxMzYlIiB4Mj0iNDcuOTQ2OTM5NiUiIHkxPSI4OC4yNDc3NDg0JSIgeDE9IjUxLjg1OTY1MyUiPiYjeGE7ICAgICAgICAgICAgPHN0b3Agb2Zmc2V0PSIwJSIgc3RvcC1jb2xvcj0iI0ZGRUVENyIvPiYjeGE7ICAgICAgICAgICAgPHN0b3Agb2Zmc2V0PSIxMDAlIiBzdG9wLWNvbG9yPSIjQkRCRkMyIi8+JiN4YTsgICAgICAgIDwvbGluZWFyR3JhZGllbnQ+JiN4YTsgICAgICAgIDxsaW5lYXJHcmFkaWVudCBpZD0ibGluZWFyR3JhZGllbnQtNSIgeTI9IjEzLjgxMDkyNzIlIiB4Mj0iNDkuOTIzNjg0MyUiIHkxPSI4NS40OTAwMTczJSIgeDE9IjQ5LjkyNTEwOTclIj4mI3hhOyAgICAgICAgICAgIDxzdG9wIG9mZnNldD0iMCUiIHN0b3AtY29sb3I9IiNGRkVFRDciLz4mI3hhOyAgICAgICAgICAgIDxzdG9wIG9mZnNldD0iMTAwJSIgc3RvcC1jb2xvcj0iI0JEQkZDMiIvPiYjeGE7ICAgICAgICA8L2xpbmVhckdyYWRpZW50PiYjeGE7ICAgICAgICA8bGluZWFyR3JhZGllbnQgaWQ9ImxpbmVhckdyYWRpZW50LTYiIHkyPSI5My44OTQ5NTcxJSIgeDI9IjQ1Ljk1NTUzNTQlIiB5MT0iMy4xMDE3NzU4NSUiIHgxPSI1My45MDE0MDcxJSI+JiN4YTsgICAgICAgICAgICA8c3RvcCBvZmZzZXQ9IjAlIiBzdG9wLW9wYWNpdHk9IjAuNjUiIHN0b3AtY29sb3I9IiNGRkZGRkYiLz4mI3hhOyAgICAgICAgICAgIDxzdG9wIG9mZnNldD0iMTAwJSIgc3RvcC1vcGFjaXR5PSIwIiBzdG9wLWNvbG9yPSIjRkZGRkZGIi8+JiN4YTsgICAgICAgIDwvbGluZWFyR3JhZGllbnQ+JiN4YTsgICAgICAgIDxsaW5lYXJHcmFkaWVudCBpZD0ibGluZWFyR3JhZGllbnQtNyIgeTI9IjkzLjUyMzUxNjIlIiB4Mj0iNTQuODExMzU5JSIgeTE9IjUuNDc0NTkwNTIlIiB4MT0iNDUuNTkyODc2MSUiPiYjeGE7ICAgICAgICAgICAgPHN0b3Agb2Zmc2V0PSIwJSIgc3RvcC1vcGFjaXR5PSIwLjY1IiBzdG9wLWNvbG9yPSIjRkZGRkZGIi8+JiN4YTsgICAgICAgICAgICA8c3RvcCBvZmZzZXQ9IjEwMCUiIHN0b3Atb3BhY2l0eT0iMCIgc3RvcC1jb2xvcj0iI0ZGRkZGRiIvPiYjeGE7ICAgICAgICA8L2xpbmVhckdyYWRpZW50PiYjeGE7ICAgICAgICA8bGluZWFyR3JhZGllbnQgaWQ9ImxpbmVhckdyYWRpZW50LTgiIHkyPSI0MC42MzE2ODY0JSIgeDI9IjQ5Ljk4NDQ5ODclIiB5MT0iODkuODQ1MjQ0MiUiIHgxPSI0OS45ODQ0OTg3JSI+JiN4YTsgICAgICAgICAgICA8c3RvcCBvZmZzZXQ9IjAlIiBzdG9wLWNvbG9yPSIjRkZFRUQ3Ii8+JiN4YTsgICAgICAgICAgICA8c3RvcCBvZmZzZXQ9IjEwMCUiIHN0b3AtY29sb3I9IiNCREJGQzIiLz4mI3hhOyAgICAgICAgPC9saW5lYXJHcmFkaWVudD4mI3hhOyAgICAgICAgPGxpbmVhckdyYWRpZW50IGlkPSJsaW5lYXJHcmFkaWVudC05IiB5Mj0iMjMuNTQ1MTcxNSUiIHgyPSI0Mi43NDU1OTY4JSIgeTE9Ijk5Ljk3NTI0JSIgeDE9IjUzLjUwNDcxMzElIj4mI3hhOyAgICAgICAgICAgIDxzdG9wIG9mZnNldD0iMCUiIHN0b3AtY29sb3I9IiNGRkVFRDciLz4mI3hhOyAgICAgICAgICAgIDxzdG9wIG9mZnNldD0iMTAwJSIgc3RvcC1jb2xvcj0iI0JEQkZDMiIvPiYjeGE7ICAgICAgICA8L2xpbmVhckdyYWRpZW50PiYjeGE7ICAgICAgICA8bGluZWFyR3JhZGllbnQgaWQ9ImxpbmVhckdyYWRpZW50LTEwIiB5Mj0iOTQuNjcyOTY5NCUiIHgyPSI1MC4yNDEyNjEyJSIgeTE9IjEzLjIyODk1NTglIiB4MT0iNDkuODQxMzM2MyUiPiYjeGE7ICAgICAgICAgICAgPHN0b3Agb2Zmc2V0PSIwJSIgc3RvcC1vcGFjaXR5PSIwLjgiIHN0b3AtY29sb3I9IiNGRkZGRkYiLz4mI3hhOyAgICAgICAgICAgIDxzdG9wIG9mZnNldD0iMTAwJSIgc3RvcC1vcGFjaXR5PSIwIiBzdG9wLWNvbG9yPSIjRkZGRkZGIi8+JiN4YTsgICAgICAgIDwvbGluZWFyR3JhZGllbnQ+JiN4YTsgICAgICAgIDxsaW5lYXJHcmFkaWVudCBpZD0ibGluZWFyR3JhZGllbnQtMTEiIHkyPSI5Mi43ODI0NzM1JSIgeDI9IjUwLjcyNzA0NDYlIiB5MT0iMzcuMzI3MDMzNyUiIHgxPSI0OS45MjcyMjk4JSI+JiN4YTsgICAgICAgICAgICA8c3RvcCBvZmZzZXQ9IjAlIiBzdG9wLW9wYWNpdHk9IjAuNjUiIHN0b3AtY29sb3I9IiNGRkZGRkYiLz4mI3hhOyAgICAgICAgICAgIDxzdG9wIG9mZnNldD0iMTAwJSIgc3RvcC1vcGFjaXR5PSIwIiBzdG9wLWNvbG9yPSIjRkZGRkZGIi8+JiN4YTsgICAgICAgIDwvbGluZWFyR3JhZGllbnQ+JiN4YTsgICAgICAgIDxsaW5lYXJHcmFkaWVudCBpZD0ibGluZWFyR3JhZGllbnQtMTIiIHkyPSI4MS4yMDM2MTclIiB4Mj0iNDkuODc1NTU5NyUiIHkxPSIyLjI5OTAwNTg0JSIgeDE9IjQ5Ljg3NTU1OTclIj4mI3hhOyAgICAgICAgICAgIDxzdG9wIG9mZnNldD0iMCUiIHN0b3Atb3BhY2l0eT0iMC42NSIgc3RvcC1jb2xvcj0iI0ZGRkZGRiIvPiYjeGE7ICAgICAgICAgICAgPHN0b3Agb2Zmc2V0PSIxMDAlIiBzdG9wLW9wYWNpdHk9IjAiIHN0b3AtY29sb3I9IiNGRkZGRkYiLz4mI3hhOyAgICAgICAgPC9saW5lYXJHcmFkaWVudD4mI3hhOyAgICAgICAgPGxpbmVhckdyYWRpZW50IGlkPSJsaW5lYXJHcmFkaWVudC0xMyIgeTI9IjcxLjc5ODk2MTclIiB4Mj0iNDkuODI0MDM5OCUiIHkxPSIyLjI3MTg5MDY1JSIgeDE9IjQ5LjgzMzQzOTElIj4mI3hhOyAgICAgICAgICAgIDxzdG9wIG9mZnNldD0iMCUiIHN0b3Atb3BhY2l0eT0iMC42NSIgc3RvcC1jb2xvcj0iI0ZGRkZGRiIvPiYjeGE7ICAgICAgICAgICAgPHN0b3Agb2Zmc2V0PSIxMDAlIiBzdG9wLW9wYWNpdHk9IjAiIHN0b3AtY29sb3I9IiNGRkZGRkYiLz4mI3hhOyAgICAgICAgPC9saW5lYXJHcmFkaWVudD4mI3hhOyAgICAgICAgPGxpbmVhckdyYWRpZW50IGlkPSJsaW5lYXJHcmFkaWVudC0xNCIgeTI9Ijk4LjA5OTk3NzYlIiB4Mj0iMzguOTQ4ODcwOCUiIHkxPSI0OC45MjEzODYxJSIgeDE9IjUzLjQ2NzA2ODMlIj4mI3hhOyAgICAgICAgICAgIDxzdG9wIG9mZnNldD0iMCUiIHN0b3AtY29sb3I9IiNGRkE2M0YiLz4mI3hhOyAgICAgICAgICAgIDxzdG9wIG9mZnNldD0iMTAwJSIgc3RvcC1jb2xvcj0iI0ZGRkYwMCIvPiYjeGE7ICAgICAgICA8L2xpbmVhckdyYWRpZW50PiYjeGE7ICAgICAgICA8bGluZWFyR3JhZGllbnQgaWQ9ImxpbmVhckdyYWRpZW50LTE1IiB5Mj0iLTY0LjYyMTUzODklIiB4Mj0iNDcuNTc5MDklIiB5MT0iMTQzLjAwODkwOSUiIHgxPSI1Mi4zNzMxNTA4JSI+JiN4YTsgICAgICAgICAgICA8c3RvcCBvZmZzZXQ9IjAlIiBzdG9wLWNvbG9yPSIjRkZFRUQ3Ii8+JiN4YTsgICAgICAgICAgICA8c3RvcCBvZmZzZXQ9IjEwMCUiIHN0b3AtY29sb3I9IiNCREJGQzIiLz4mI3hhOyAgICAgICAgPC9saW5lYXJHcmFkaWVudD4mI3hhOyAgICAgICAgPGxpbmVhckdyYWRpZW50IGlkPSJsaW5lYXJHcmFkaWVudC0xNiIgeTI9Ijg5LjE3NTM0OSUiIHgyPSI2NS44ODY3MDI0JSIgeTE9IjM0LjAyNDEwNzklIiB4MT0iMzAuNTgwODE1JSI+JiN4YTsgICAgICAgICAgICA8c3RvcCBvZmZzZXQ9IjAlIiBzdG9wLWNvbG9yPSIjRkZBNjNGIi8+JiN4YTsgICAgICAgICAgICA8c3RvcCBvZmZzZXQ9IjEwMCUiIHN0b3AtY29sb3I9IiNGRkZGMDAiLz4mI3hhOyAgICAgICAgPC9saW5lYXJHcmFkaWVudD4mI3hhOyAgICAgICAgPGxpbmVhckdyYWRpZW50IGlkPSJsaW5lYXJHcmFkaWVudC0xNyIgeTI9IjY2LjExODQ0NjUlIiB4Mj0iNDguMzYwODUyMiUiIHkxPSItMTcuMjE1NTIwNyUiIHgxPSI1OS41NzE1MDkxJSI+JiN4YTsgICAgICAgICAgICA8c3RvcCBvZmZzZXQ9IjAlIiBzdG9wLW9wYWNpdHk9IjAuNjUiIHN0b3AtY29sb3I9IiNGRkZGRkYiLz4mI3hhOyAgICAgICAgICAgIDxzdG9wIG9mZnNldD0iMTAwJSIgc3RvcC1vcGFjaXR5PSIwIiBzdG9wLWNvbG9yPSIjRkZGRkZGIi8+JiN4YTsgICAgICAgIDwvbGluZWFyR3JhZGllbnQ+JiN4YTsgICAgICAgIDxsaW5lYXJHcmFkaWVudCBpZD0ibGluZWFyR3JhZGllbnQtMTgiIHkyPSIxMDQuMzEyODU2JSIgeDI9IjUxLjM3MzMwMjglIiB5MT0iMS41NjQ4MTMwMSUiIHgxPSI0Ny43Njg5NTUzJSI+JiN4YTsgICAgICAgICAgICA8c3RvcCBvZmZzZXQ9IjAlIiBzdG9wLW9wYWNpdHk9IjAuNjUiIHN0b3AtY29sb3I9IiNGRkZGRkYiLz4mI3hhOyAgICAgICAgICAgIDxzdG9wIG9mZnNldD0iMTAwJSIgc3RvcC1vcGFjaXR5PSIwIiBzdG9wLWNvbG9yPSIjRkZGRkZGIi8+JiN4YTsgICAgICAgIDwvbGluZWFyR3JhZGllbnQ+JiN4YTsgICAgICAgIDxsaW5lYXJHcmFkaWVudCBpZD0ibGluZWFyR3JhZGllbnQtMTkiIHkyPSI5Mi44MjY3MTc0JSIgeDI9IjU3LjExNDMyODglIiB5MT0iNC41MzM0ODYxJSIgeDE9IjQzLjU0OTU2MjYlIj4mI3hhOyAgICAgICAgICAgIDxzdG9wIG9mZnNldD0iMCUiIHN0b3Atb3BhY2l0eT0iMC42NSIgc3RvcC1jb2xvcj0iI0ZGRkZGRiIvPiYjeGE7ICAgICAgICAgICAgPHN0b3Agb2Zmc2V0PSIxMDAlIiBzdG9wLW9wYWNpdHk9IjAiIHN0b3AtY29sb3I9IiNGRkZGRkYiLz4mI3hhOyAgICAgICAgPC9saW5lYXJHcmFkaWVudD4mI3hhOyAgICAgICAgPGxpbmVhckdyYWRpZW50IGlkPSJsaW5lYXJHcmFkaWVudC0yMCIgeTI9Ijk5LjM4NTQ2NjclIiB4Mj0iNTAuNTU4MjQ4NyUiIHkxPSIxNy42MDg1MjE2JSIgeDE9IjQ5LjczMjgwNDIlIj4mI3hhOyAgICAgICAgICAgIDxzdG9wIG9mZnNldD0iMCUiIHN0b3AtY29sb3I9IiNGRkE2M0YiLz4mI3hhOyAgICAgICAgICAgIDxzdG9wIG9mZnNldD0iMTAwJSIgc3RvcC1jb2xvcj0iI0ZGRkYwMCIvPiYjeGE7ICAgICAgICA8L2xpbmVhckdyYWRpZW50PiYjeGE7ICAgICAgICA8bGluZWFyR3JhZGllbnQgaWQ9ImxpbmVhckdyYWRpZW50LTIxIiB5Mj0iOTQuMTcwNDI3OSUiIHgyPSI0OS42ODAyMzU5JSIgeTE9IjIuODkwNDg1MzElIiB4MT0iNTAuMTY5NzIxNyUiPiYjeGE7ICAgICAgICAgICAgPHN0b3Agb2Zmc2V0PSIwJSIgc3RvcC1vcGFjaXR5PSIwLjY1IiBzdG9wLWNvbG9yPSIjRkZGRkZGIi8+JiN4YTsgICAgICAgICAgICA8c3RvcCBvZmZzZXQ9IjEwMCUiIHN0b3Atb3BhY2l0eT0iMCIgc3RvcC1jb2xvcj0iI0ZGRkZGRiIvPiYjeGE7ICAgICAgICA8L2xpbmVhckdyYWRpZW50PiYjeGE7ICAgIDwvZGVmcz4mI3hhOyAgICA8ZyBmaWxsPSJub25lIj4mI3hhOyAgICAgICAgPGcgdHJhbnNmb3JtPSJ0cmFuc2xhdGUoMTAuMDAwMDAwLCAwLjAwMDAwMCkiPiYjeGE7ICAgICAgICAgICAgPHBhdGggZmlsdGVyPSJ1cmwoI2ZpbHRlci0xKSIgZmlsbC1vcGFjaXR5PSIwLjIiIGZpbGw9IiMwMDAiIGQ9Ik0yMzUuMTI1NDIzLDI0OS4zNTg2MjggQzIzNS4xMjU0MjMsMjY2LjcxNDI3MSAxODIuNTA3NTI0LDI4MC44NTU5MDUgMTE3LjU4NDU2NywyODAuODU1OTA1IEM1Mi42NjE2MDkzLDI4MC44NTU5MDUgMC4wNDM3MTA1MDU4LDI2Ni44MDYwOTkgMC4wNDM3MTA1MDU4LDI0OS4zNTg2MjggTDAuMDQzNzEwNTA1OCwyNDkuMzU4NjI4IEMwLjA0MzcxMDUwNTgsMjMyLjAwMjk4NiA1Mi42NjE2MDkzLDIxNy44NjEzNTIgMTE3LjU4NDU2NywyMTcuODYxMzUyIEMxODIuNTA3NTI0LDIxNy44NjEzNTIgMjM1LjAzMzU5NCwyMzIuMDAyOTg2IDIzNS4xMjU0MjMsMjQ5LjM1ODYyOCBMMjM1LjEyNTQyMywyNDkuMzU4NjI4IEwyMzUuMTI1NDIzLDI0OS4zNTg2MjggWiIvPiYjeGE7ICAgICAgICAgICAgPHBhdGggZmlsbD0iIzAwMDAwMCIgZD0iTTUzLjIxMjU4MjEsMjE1LjQ3MzgwNCBDNDEuODI1ODExNywxOTkuMTI4Mjc4IDM5LjYyMTkyMDYsMTQ1Ljg2NzU3OCA2Ni4xNjA0NDIsMTEzLjA4NDY5OSBDNzkuMjkxOTU5NSw5Ny4zODE5NzQ4IDgyLjY4OTYyNDksODYuNDU0MzQ4MyA4My42OTk3NDE2LDcxLjY2OTkxMjUgQzg0LjQzNDM3Miw1NC44NjUyNDMzIDcxLjg1MzgyNzIsNC44MTg1NTA2NiAxMTkuMjM3NDg1LDEuMDUzNTcwMTIgQzE2Ny4yNjM5NDQsLTIuODAzMjM5MjIgMTY0LjYwMDkwOSw0NC41ODA0MTg0IDE2NC4zMjU0MjMsNjkuNjQ5Njc5MSBDMTY0LjE0MTc2NSw5MC43NzAzMDE2IDE3OS44NDQ0ODksMTAyLjc5OTg3NCAxOTAuNjgwMjg2LDExOS4zMjkwNTYgQzIxMC42MDcxMzUsMTQ5LjYzMjU1OCAyMDguOTU0MjE2LDIwMS43OTEzMTMgMTg2LjkxNTMwNiwyMzAuMDc0NTgyIEMxNTguOTk5MzUzLDI2NS40Mjg2NjcgMTM1LjEyMzg2NiwyNTAuMDkzMjU5IDExOS4yMzc0ODUsMjUxLjM3ODg2MiBDODkuNDg0OTU1NiwyNTMuMTIzNjA5IDg4LjQ3NDgzODksMjY4LjkxODE2MiA1My4yMTI1ODIxLDIxNS40NzM4MDQgTDUzLjIxMjU4MjEsMjE1LjQ3MzgwNCBaIi8+JiN4YTsgICAgICAgICAgICA8cGF0aCBmaWxsPSJ1cmwoI2xpbmVhckdyYWRpZW50LTIpIiBkPSJNMTY5LjEwMDUyLDEyMi40NTEyMzUgQzE3Ny4zNjUxMTEsMTMwLjA3MzAyNSAxOTguNzYxMjIsMTY0LjE0MTUwOCAxNjQuODc2Mzk1LDE4NS40NDU3ODggQzE1Mi45Mzg2NTIsMTkyLjg4MzkyIDE3NS41Mjg1MzUsMjIxLjE2NzE4OSAxODYuMzY0MzMzLDIwNy40ODQ2OTkgQzIwNS41NTY1NTEsMTgyLjg3NDU4MiAxOTMuMzQzMzIxLDE0My41NzE4NTggMTgxLjc3Mjg5MywxMjkuNTIyMDUzIEMxNzQuMDU5Mjc1LDExOS42MDQ1NDMgMTYyLjEyMTUzMiwxMTUuNzQ3NzM0IDE2OS4xMDA1MiwxMjIuNDUxMjM1IEwxNjkuMTAwNTIsMTIyLjQ1MTIzNSBaIi8+JiN4YTsgICAgICAgICAgICA8cGF0aCBmaWxsPSIjMDAwMDAwIiBzdHJva2Utd2lkdGg9IjAuOTc3MyIgc3Ryb2tlPSIjMDAwMDAwIiBkPSJNMTY2LjgwNDgsMTE3Ljg1OTc5NiBDMTgwLjM5NTQ2MSwxMjguODc5MjUxIDIwNS4wOTc0MDcsMTY3LjQ0NzM0NCAxNjkuMDA4NjkxLDE5Mi42MDg0MzQgQzE1Ny4xNjI3NzcsMjAwLjQxMzg4MSAxNzkuNDc3MTc0LDIyNS4xMTU4MjcgMTkyLjA1NzcxOCwyMTIuNTM1MjgyIEMyMzUuNjc2Mzk1LDE2OC42NDExMTkgMTkwLjk1NTc3MywxMTguMjI3MTExIDE3NS41Mjg1MzUsMTAwLjg3MTQ2OSBDMTYxLjc1NDIxNiw4NS43MTk3MTggMTQ5LjU0MDk4NywxMDQuMzYwOTYzIDE2Ni44MDQ4LDExNy44NTk3OTYgTDE2Ni44MDQ4LDExNy44NTk3OTYgWiIvPiYjeGE7ICAgICAgICAgICAgPHBhdGggZmlsbD0idXJsKCNsaW5lYXJHcmFkaWVudC0zKSIgZD0iTTE0Ny4yNDUyNjcsMjUuMDIwODg1MyBDMTQ2Ljc4NjEyMywzNy42MDE0MyAxMzIuOTE5OTc1LDQ4LjUyOTA1NjUgMTE2LjI5ODk2Myw0OS41MzkxNzMyIEM5OS42Nzc5NTE4LDUwLjU0OTI5IDg2LjYzODI2Myw0MC45OTkwOTU0IDg3LjA5NzQwNywyOC40MTg1NTA3IEw4Ny4wOTc0MDcsMjguNDE4NTUwNyBDODcuNTU2NTUxLDE1LjgzODAwNTkgMTAxLjQyMjY5OSw0LjkxMDM3OTQ2IDExOC4wNDM3MTEsMy45MDAyNjI3MiBDMTM0LjY2NDcyMiwyLjk4MTk3NDc5IDE0Ny43MDQ0MTEsMTIuNDQwMzQwNSAxNDcuMjQ1MjY3LDI1LjAyMDg4NTMgTDE0Ny4yNDUyNjcsMjUuMDIwODg1MyBMMTQ3LjI0NTI2NywyNS4wMjA4ODUzIFoiLz4mI3hhOyAgICAgICAgICAgIDxwYXRoIGZpbGw9InVybCgjbGluZWFyR3JhZGllbnQtNCkiIGQ9Ik0xMDcuNDgzMzk5LDU0Ljk1NzA3MjEgQzEwNy45NDI1NDMsNjMuMTI5ODM0NyAxMDQuMDg1NzM0LDcwLjAxNjk5NDIgOTguNzU5NjYzOCw3MC4yOTI0ODA2IEM5My40MzM1OTM4LDcwLjU2Nzk2NyA4OC43NTAzMjUzLDY0LjIzMTc4MDIgODguMjkxMTgxMyw1Ni4wNTkwMTc2IEw4OC4yOTExODEzLDU2LjA1OTAxNzYgQzg3LjgzMjAzNzQsNDcuODg2MjU0OSA5MS42ODg4NDY3LDQwLjk5OTA5NTQgOTcuMDE0OTE2Nyw0MC43MjM2MDkgQzEwMi4zNDA5ODcsNDAuNDQ4MTIyNiAxMDcuMDI0MjU1LDQ2Ljc4NDMwOTQgMTA3LjQ4MzM5OSw1NC45NTcwNzIxIEwxMDcuNDgzMzk5LDU0Ljk1NzA3MjEgTDEwNy40ODMzOTksNTQuOTU3MDcyMSBaIi8+JiN4YTsgICAgICAgICAgICA8cGF0aCBmaWxsPSJ1cmwoI2xpbmVhckdyYWRpZW50LTUpIiBkPSJNMTE3LjEyNTQyMyw1NS41OTk4NzM2IEMxMTcuMzA5MDgsNjUuMDU4MjM5NCAxMjMuNDYxNjA5LDcyLjU4ODIwMDUgMTMwLjgwNzkxMyw3Mi40MDQ1NDI5IEMxMzguMTU0MjE2LDcyLjIyMDg4NTMgMTQzLjkzOTQzLDY0LjQxNTQzNzggMTQzLjc1NTc3Myw1NC44NjUyNDMzIEwxNDMuNzU1NzczLDU0Ljg2NTI0MzMgQzE0My41NzIxMTUsNDUuNDA2ODc3NSAxMzcuNDE5NTg2LDM3Ljg3NjkxNjQgMTMwLjA3MzI4MiwzOC4wNjA1NzQgQzEyMi43MjY5NzksMzguMjQ0MjMxNiAxMTYuODQ5OTM2LDQ2LjE0MTUwNzkgMTE3LjEyNTQyMyw1NS41OTk4NzM2IEwxMTcuMTI1NDIzLDU1LjU5OTg3MzYgTDExNy4xMjU0MjMsNTUuNTk5ODczNiBaIi8+JiN4YTsgICAgICAgICAgICA8cGF0aCBmaWxsPSIjMDAwMDAwIiBkPSJNMTIzLjE4NjEyMyw1Ny43MTE5MzU5IEMxMjMuMDk0Mjk0LDYyLjk0NjE3NzEgMTI1LjY2NTUsNjcuMTcwMzAxNiAxMjkuMDYzMTY2LDY3LjE3MDMwMTYgQzEzMi4zNjkwMDIsNjcuMTcwMzAxNiAxMzUuMjE1Njk1LDYyLjk0NjE3NzEgMTM1LjMwNzUyNCw1Ny44MDM3NjQ3IEwxMzUuMzA3NTI0LDU3LjgwMzc2NDcgQzEzNS4zOTkzNTMsNTIuNTY5NTIzNCAxMzIuODI4MTQ2LDQ4LjM0NTM5ODkgMTI5LjQzMDQ4MSw0OC4zNDUzOTg5IEMxMjYuMDMyODE2LDQ4LjM0NTM5ODkgMTIzLjI3Nzk1Miw1Mi41Njk1MjM0IDEyMy4xODYxMjMsNTcuNzExOTM1OSBMMTIzLjE4NjEyMyw1Ny43MTE5MzU5IEwxMjMuMTg2MTIzLDU3LjcxMTkzNTkgWiIvPiYjeGE7ICAgICAgICAgICAgPHBhdGggZmlsbD0iIzAwMDAwMCIgZD0iTTEwMS45NzM2NzIsNTcuODAzNzY0NyBDMTAyLjQzMjgxNiw2Mi4xMTk3MTggMTAwLjc3OTg5Nyw2NS43OTI4Njk3IDk4LjM5MjM0ODYsNjYuMTYwMTg0OSBDOTYuMDA0OCw2Ni40MzU2NzEzIDkzLjcwOTA4MDIsNjMuMjIxNjYzNSA5My4yNDk5MzYyLDU4LjkwNTcxMDIgTDkzLjI0OTkzNjIsNTguOTA1NzEwMiBDOTIuNzkwNzkyMiw1NC41ODk3NTY5IDk0LjQ0MzcxMDUsNTAuOTE2NjA1MSA5Ni44MzEyNTkxLDUwLjU0OTI5IEM5OS4yMTg4MDc4LDUwLjI3MzgwMzYgMTAxLjUxNDUyOCw1My40ODc4MTE0IDEwMS45NzM2NzIsNTcuODAzNzY0NyBMMTAxLjk3MzY3Miw1Ny44MDM3NjQ3IEwxMDEuOTczNjcyLDU3LjgwMzc2NDcgWiIvPiYjeGE7ICAgICAgICAgICAgPHBhdGggZmlsbD0idXJsKCNsaW5lYXJHcmFkaWVudC02KSIgZD0iTTEyNC41NjM1NTUsNTQuNzczNDE0NSBDMTI0LjI4ODA2OCw1Ny43MTE5MzU5IDEyNS42NjU1LDYwLjA5OTQ4NDUgMTI3LjU5MzkwNSw2MC4yODMxNDIxIEMxMjkuNTIyMzEsNjAuNDY2Nzk5NyAxMzEuMzU4ODg2LDU4LjE3MTA3OTggMTMxLjYzNDM3Miw1NS4zMjQzODcyIEwxMzEuNjM0MzcyLDU1LjMyNDM4NzIgQzEzMS45MDk4NTgsNTIuMzg1ODY1OCAxMzAuNTMyNDI2LDQ5Ljk5ODMxNzIgMTI4LjYwNDAyMiw0OS44MTQ2NTk2IEMxMjYuNjc1NjE3LDQ5LjYzMTAwMiAxMjQuODM5MDQxLDUxLjkyNjcyMTkgMTI0LjU2MzU1NSw1NC43NzM0MTQ1IEwxMjQuNTYzNTU1LDU0Ljc3MzQxNDUgTDEyNC41NjM1NTUsNTQuNzczNDE0NSBaIi8+JiN4YTsgICAgICAgICAgICA8cGF0aCBmaWxsPSJ1cmwoI2xpbmVhckdyYWRpZW50LTcpIiBkPSJNOTkuOTUzNDM4MSw1NS41MDgwNDQ4IEMxMDAuMjI4OTI1LDU3Ljg5NTU5MzUgOTkuMjE4ODA3OCw2MC4wMDc2NTU3IDk3Ljc0OTU0NzEsNjAuMTkxMzEzMyBDOTYuMjgwMjg2NCw2MC4zNzQ5NzA5IDk0LjkwMjg1NDUsNTguNTM4Mzk1IDk0LjYyNzM2ODEsNTYuMDU5MDE3NiBMOTQuNjI3MzY4MSw1Ni4wNTkwMTc2IEM5NC4zNTE4ODE3LDUzLjY3MTQ2ODkgOTUuMzYxOTk4NCw1MS41NTk0MDY3IDk2LjgzMTI1OTEsNTEuMzc1NzQ5MSBDOTguMzAwNTE5OCw1MS4xOTIwOTE1IDk5LjY3Nzk1MTgsNTMuMTIwNDk2MiA5OS45NTM0MzgxLDU1LjUwODA0NDggTDk5Ljk1MzQzODEsNTUuNTA4MDQ0OCBMOTkuOTUzNDM4MSw1NS41MDgwNDQ4IFoiLz4mI3hhOyAgICAgICAgICAgIDxwYXRoIGZpbGw9InVybCgjbGluZWFyR3JhZGllbnQtOCkiIGQ9Ik03MS4wMjczNjgxLDE0NS42ODM5MiBDNzcuNTQ3MjEyNSwxMzAuODk5NDg1IDkxLjQxMzM2MDMsMTA0LjkxMTkzNiA5MS42ODg4NDY3LDg0LjgwMTQzIEM5MS42ODg4NDY3LDY4LjgyMzIxOTkgMTM5LjUzMTY0OCw2NC45NjY0MTA2IDE0My4zODg0NTgsODAuOTQ0NjIwNyBDMTQ3LjI0NTI2Nyw5Ni45MjI4MzA4IDE1Ni45NzkxMTksMTIwLjc5ODMxNyAxNjMuMjIzNDc3LDEzMi4zNjg3NDUgQzE2OS40Njc4MzUsMTQzLjg0NzM0NCAxODcuNTU4MTA3LDE4MC40ODcwMzMgMTY4LjI3NDA2MSwyMTIuNDQzNDUzIEMxNTAuOTE4NDE5LDI0MC43MjY3MjIgOTguMzAwNTE5OCwyNjMuMTMyOTQ4IDcwLjIwMDkwODksMjA4LjU4NjY0NCBDNjAuNjUwNzE0NCwxODkuNjY5OTEzIDYyLjM5NTQ2MTUsMTY2LjI1MzU3IDcxLjAyNzM2ODEsMTQ1LjY4MzkyIEw3MS4wMjczNjgxLDE0NS42ODM5MiBaIi8+JiN4YTsgICAgICAgICAgICA8cGF0aCBmaWxsPSJ1cmwoI2xpbmVhckdyYWRpZW50LTkpIiBkPSJNNjUuMTUwMzI1MywxMzQuNjY0NDY1IEM1OS41NDg3Njg5LDE0NS4yMjQ3NzYgNDcuOTc4MzQwOSwxNzIuOTU3MDcyIDc2LjI2MTYwOTMsMTg4LjEwODgyMyBDMTA2LjY1Njk0LDIwNC4yNzA2OTEgMTA2LjU2NTExMSwyMzcuNDIwODg1IDcwLjAxNzI1MTQsMjIxLjYyNjMzMyBDMzYuNTkxNTcwNCwyMDcuMzkyODcgNTEuMzc2MDA2MiwxNDkuNzI0Mzg3IDYwLjc0MjU0MzIsMTM1Ljk1MDA2OCBDNjYuODAzMjQzNiwxMjYuMzA4MDQ1IDc1Ljk4NjEyMywxMTQuNDYyMTMgNjUuMTUwMzI1MywxMzQuNjY0NDY1IEw2NS4xNTAzMjUzLDEzNC42NjQ0NjUgWiIvPiYjeGE7ICAgICAgICAgICAgPHBhdGggZmlsbD0iIzAwMDAwMCIgc3Ryb2tlLXdpZHRoPSIxLjI1IiBzdHJva2U9IiMwMDAwMDAiIGQ9Ik02OS45MjU0MjI2LDEyMi43MjY3MjIgQzYxLjAxODAyOTYsMTM3LjIzNTY3MSAzOS43MTM3NDk0LDE3MS4zOTU5ODMgNjguMjcyNTA0MywxODkuMjEwNzY5IEMxMDYuNjU2OTQsMjEyLjgxMDc2OSA5NS44MjExNDI0LDIzNi4zMTg5NCA2MC43NDI1NDMyLDIxNS4xMDY0ODggQzExLjMzODY1MjEsMTg1LjUzNzYxNyA1NC43NzM2NzE2LDEyNS44NDg5MDEgNzQuNTE2ODYyMywxMDMuMDc1MzYgQzk3LjEwNjc0NTUsNzcuNTQ2OTU1MyA3OC44MzI4MTU2LDEwNy43NTg2MjggNjkuOTI1NDIyNiwxMjIuNzI2NzIyIEw2OS45MjU0MjI2LDEyMi43MjY3MjIgWiIvPiYjeGE7ICAgICAgICAgICAgPHBhdGggZmlsbD0idXJsKCNsaW5lYXJHcmFkaWVudC0xMCkiIGQ9Ik0xNTYuNDI4MTQ2LDE1MS4yODU0NzcgQzE1Ni40MjgxNDYsMTY3LjQ0NzM0NCAxNDAuOTA5MDgsMTg4LjM4NDMwOSAxMTQuMjc4NzMsMTg4LjIwMDY1MiBDODYuODIxOTIwNiwxODguMzg0MzA5IDc1LjE1OTY2MzgsMTY3LjQ0NzM0NCA3NS4xNTk2NjM4LDE1MS4yODU0NzcgQzc1LjE1OTY2MzgsMTM1LjEyMzYwOSA5My4zNDE3NjUsMTIxLjk5MjA5MiAxMTUuNzQ3OTkxLDEyMS45OTIwOTIgQzEzOC4yNDYwNDUsMTIyLjA4MzkyIDE1Ni40MjgxNDYsMTM1LjEyMzYwOSAxNTYuNDI4MTQ2LDE1MS4yODU0NzcgTDE1Ni40MjgxNDYsMTUxLjI4NTQ3NyBaIi8+JiN4YTsgICAgICAgICAgICA8cGF0aCBmaWxsPSJ1cmwoI2xpbmVhckdyYWRpZW50LTExKSIgZD0iTTE0MS45MTkxOTcsMTAwLjUwNDE1NCBDMTQxLjY0MzcxMSwxMTcuMjE2OTk0IDEzMC43MTYwODQsMTIxLjE2NTYzMiAxMTYuOTQxNzY1LDEyMS4xNjU2MzIgQzEwMy4xNjc0NDYsMTIxLjE2NTYzMiA5My4xNTgxMDc0LDExOC42ODYyNTUgOTEuOTY0MzMzMSwxMDAuNTA0MTU0IEM5MS45NjQzMzMxLDg5LjExNzM4MzMgMTAzLjE2NzQ0Niw4Mi41MDU3MTAyIDExNi45NDE3NjUsODIuNTA1NzEwMiBDMTMwLjcxNjA4NCw4Mi40MTM4ODE0IDE0MS45MTkxOTcsODkuMDI1NTU0NiAxNDEuOTE5MTk3LDEwMC41MDQxNTQgTDE0MS45MTkxOTcsMTAwLjUwNDE1NCBaIi8+JiN4YTsgICAgICAgICAgICA8cGF0aCBmaWxsPSJ1cmwoI2xpbmVhckdyYWRpZW50LTEyKSIgZD0iTTU4LjYzMDQ4MDksMTI2LjIxNjIxNiBDNjcuNjI5NzAyNywxMTIuNTMzNzI2IDg2LjYzODI2Myw5MS41MDQ5MzIgNjIuMjExODAzOSwxMjkuMTU0NzM3IEM0Mi4zNzY3ODQ0LDE2MC4xOTI4NyA1NC44NjU1MDA0LDE4MC4xMTk3MTggNjEuMjkzNTE2LDE4NS42Mjk0NDYgQzc5Ljg0MjkzMjMsMjAyLjE1ODYyOCA3OS4xMDgzMDE5LDIxMy4yNjk5MTMgNjQuNTA3NTIzNywyMDQuNTQ2MTc3IEMzMy4xOTM5MDUxLDE4NS45MDQ5MzIgMzkuNzEzNzQ5NCwxNTQuNDk5NDg1IDU4LjYzMDQ4MDksMTI2LjIxNjIxNiBMNTguNjMwNDgwOSwxMjYuMjE2MjE2IFoiLz4mI3hhOyAgICAgICAgICAgIDxwYXRoIGZpbGw9InVybCgjbGluZWFyR3JhZGllbnQtMTMpIiBkPSJNMTg4LjkzNTUzOSwxMzEuODE3NzcyIEMxODEuMTMwMDkyLDExNS43NDc3MzQgMTU2LjMzNjMxOCw3NC45NzU3NDkxIDE5MC4xMjkzMTQsMTIyLjM1OTQwNyBDMjIwLjg5MTk2LDE2NS4yNDM0NTMgMTk5LjMxMjE5MywxOTUuMDg3ODExIDE5NS40NTUzODQsMTk4LjAyNjMzMyBDMTkxLjU5ODU3NCwyMDAuOTY0ODU0IDE3OC42NTA3MTQsMjA2LjkzMzcyNiAxODIuNDE1Njk1LDE5Ni41NTcwNzIgQzE4Ni4yNzI1MDQsMTg2LjE4MDQxOCAyMDUuMzcyODkzLDE2Ni41MjkwNTYgMTg4LjkzNTUzOSwxMzEuODE3NzcyIEwxODguOTM1NTM5LDEzMS44MTc3NzIgWiIvPiYjeGE7ICAgICAgICAgICAgPHBhdGggZmlsbD0idXJsKCNsaW5lYXJHcmFkaWVudC0xNCkiIHN0cm9rZS13aWR0aD0iNi4yNSIgc3Ryb2tlPSIjRTY4QzNGIiBkPSJNNTEuODM1MTUwMiwyNTguNTQxNTA4IEMzMS4yNjU1MDA0LDI0Ny42MTM4ODEgMS40MjExNDI0MSwyNjAuNjUzNTcgMTIuMjU2OTQwMSwyMzEuMDg0Njk5IEMxNC40NjA4MzExLDIyNC4zODExOTcgOS4wNDI5MzIzLDIxNC4yODAwMjkgMTIuNTMyNDI2NSwyMDcuNzYwMTg1IEMxNi42NjQ3MjIyLDE5OS43NzEwOCAyNS41NzIxMTUyLDIwMS41MTU4MjcgMzAuODk4MTg1MiwxOTYuMTg5NzU3IEMzNi4xMzI0MjY1LDE5MC42ODAwMjkgMzkuNDM4MjYzLDE4MS4xMjk4MzUgNDkuMjYzOTQ0LDE4Mi41OTkwOTUgQzU4Ljk5Nzc5NjEsMTg0LjA2ODM1NiA2NS41MTc2NDA1LDE5Ni4wMDYwOTkgNzIuMzEyOTcxMiwyMTAuNjk4NzA2IEM3Ny4zNjM1NTQ5LDIyMS4xNjcxODkgOTUuMTc4MzQwOSwyMzUuOTUxNjI1IDkzLjk4NDU2NjUsMjQ3LjcwNTcxIEM5Mi41MTUzMDU4LDI2NS43MDQxNTQgNzIuMDM3NDg0OCwyNjkuMTAxODE5IDUxLjgzNTE1MDIsMjU4LjU0MTUwOCBMNTEuODM1MTUwMiwyNTguNTQxNTA4IFoiLz4mI3hhOyAgICAgICAgICAgIDxwYXRoIGZpbGw9InVybCgjbGluZWFyR3JhZGllbnQtMTUpIiBkPSJNMjAxLjYwNzkxMywxODkuMTE4OTQgQzE5OC40ODU3MzQsMTk0Ljk5NTk4MyAxODUuNDQ2MDQ1LDIwNC40NTQzNDggMTc2LjcyMjMxLDIwMS45NzQ5NzEgQzE2Ny45MDY3NDYsMTk5LjU4NzQyMiAxNjMuODY2Mjc5LDE4Ni4xODA0MTggMTY1LjYxMTAyNiwxNzUuOTg3NDIyIEMxNjcuMjYzOTQ0LDE2NC42MDA2NTIgMTc2LjcyMjMxLDE2My45NTc4NSAxODguNjYwMDUzLDE2OS42NTEyMzUgQzIwMS41MTYwODQsMTc1Ljk4NzQyMiAyMDUuMzcyODkzLDE4MS4zMTM0OTIgMjAxLjYwNzkxMywxODkuMTE4OTQgTDIwMS42MDc5MTMsMTg5LjExODk0IFoiLz4mI3hhOyAgICAgICAgICAgIDxwYXRoIGZpbGw9InVybCgjbGluZWFyR3JhZGllbnQtMTYpIiBzdHJva2Utd2lkdGg9IjYuMjUwNyIgc3Ryb2tlPSIjRTY4QzNGIiBkPSJNMTk0LjQ0NTI2NywyNTMuNDkwOTI0IEMyMDkuNTA1MTg5LDIzNS4yMTY5OTQgMjQzLjAyMjY5OSwyMzguOTgxOTc1IDIyMC40MzI4MTYsMjEzLjkxMjcxNCBDMjE1LjY1NzcxOCwyMDguNDk0ODE1IDIxNy4xMjY5NzksMTk2LjkyNDM4NyAyMTEuMjQ5OTM2LDE5MS45NjU2MzIgQzIwNC4zNjI3NzcsMTg1LjkwNDkzMiAxOTYuNzQwOTg3LDE5MC44NjM2ODcgMTg5Ljc2MTk5OCwxODcuNzQxNTA4IEMxODIuNzgzMDEsMTg0LjM0Mzg0MiAxNzUuNDM2NzA3LDE3Ny44MjM5OTggMTY2Ljg5NjYyOSwxODIuNDE1NDM4IEMxNTguMzU2NTUxLDE4Ny4wOTg3MDYgMTU3LjQzODI2MywxOTkuMjIwMTA3IDE1Ni42MTE4MDQsMjE1LjE5ODMxNyBDMTU1Ljg3NzE3NCwyMjYuNjc2OTE2IDE0NS40MDg2OTEsMjQ1Ljg2OTEzNCAxNTEuMDEwMjQ3LDI1Ni40Mjk0NDYgQzE1OS4wOTExODEsMjcyLjc3NDk3MSAxODAuMTE5OTc1LDI3MC41NzEwOCAxOTQuNDQ1MjY3LDI1My40OTA5MjQgTDE5NC40NDUyNjcsMjUzLjQ5MDkyNCBaIi8+JiN4YTsgICAgICAgICAgICA8cGF0aCBmaWxsPSJ1cmwoI2xpbmVhckdyYWRpZW50LTE3KSIgZD0iTTE4Ny45MjU0MjMsMjI5LjA2NDQ2NSBDMjExLjI0OTkzNiwxOTQuNjI4NjY3IDE5My44OTQyOTQsMTk0LjkwNDE1NCAxODguMDE3MjUxLDE5Mi4yNDExMTkgQzE4Mi4xNDAyMDksMTg5LjQ4NjI1NSAxNzUuOTg3Njc5LDE4NC4wNjgzNTYgMTY5LjEwMDUyLDE4Ny44MzMzMzcgQzE2Mi4yMTMzNiwxOTEuNjkwMTQ2IDE2MS44NDYwNDUsMjAxLjYwNzY1NiAxNjEuNjYyMzg4LDIxNC42NDczNDQgQzE2MS4zODY5MDEsMjI0LjAxMzg4MSAxNTMuNTgxNDU0LDIzOS43MTY2MDUgMTU4LjI2NDcyMiwyNDguNDQwMzQxIEMxNjMuOTU4MTA3LDI1OC42MzMzMzcgMTc3LjczMjQyNiwyNDMuODQ4OTAxIDE4Ny45MjU0MjMsMjI5LjA2NDQ2NSBMMTg3LjkyNTQyMywyMjkuMDY0NDY1IFoiLz4mI3hhOyAgICAgICAgICAgIDxwYXRoIGZpbGw9InVybCgjbGluZWFyR3JhZGllbnQtMTgpIiBkPSJNNDcuMDYwMDUyOSwyMzQuMDIzMjIgQzEyLjE2NTExMTMsMjExLjQzMzMzNyAyOC41MTA2MzY2LDIwMy43MTk3MTggMzMuNzQ0ODc3OCwyMDAuMTM4Mzk1IEM0MC4wODEwNjQ2LDE5NS41NDY5NTUgNDAuMTcyODkzNCwxODYuNzMxMzkxIDQ3Ljk3ODM0MDksMTg3LjU1Nzg1IEM1NS43ODM3ODgzLDE4OC4zODQzMDkgNjAuMzc1MjI4LDE5OC4wMjYzMzMgNjUuNjA5NDY5MywyMDkuOTY0MDc2IEM2OS40NjYyNzg2LDIxOC41MDQxNTQgODIuODczMjgyNSwyMjkuODkwOTI0IDgxLjg2MzE2NTgsMjM5LjcxNjYwNSBDODAuNTc3NTYyNiwyNTEuMjg3MDMzIDYyLjExOTk3NTEsMjQzLjY2NTI0MyA0Ny4wNjAwNTI5LDIzNC4wMjMyMiBMNDcuMDYwMDUyOSwyMzQuMDIzMjIgWiIvPiYjeGE7ICAgICAgICAgICAgPHBhdGggZmlsbD0iIzAwMDAwMCIgZD0iTTE5OS41ODc2NzksMTg4Ljg0MzQ1MyBDMTk2LjgzMjgxNiwxOTMuNjE4NTUxIDE4NS42Mjk3MDMsMjAxLjE0ODUxMiAxNzguMTkxNTcsMTk5LjEyODI3OCBDMTcwLjU2OTc4MSwxOTcuMTk5ODc0IDE2Ny4wODAyODYsMTg2LjQ1NTkwNSAxNjguNjQxMzc2LDE3OC4zNzQ5NzEgQzE3MC4wMTg4MDgsMTY5LjE5MjA5MiAxNzguMTkxNTcsMTY4LjczMjk0OCAxODguNDc2Mzk1LDE3My4zMjQzODcgQzE5OS40MDQwMjIsMTc4LjI4MzE0MiAyMDIuODAxNjg3LDE4Mi41MDcyNjcgMTk5LjU4NzY3OSwxODguODQzNDUzIEwxOTkuNTg3Njc5LDE4OC44NDM0NTMgWiIvPiYjeGE7ICAgICAgICAgICAgPHBhdGggZmlsbD0idXJsKCNsaW5lYXJHcmFkaWVudC0xOSkiIGQ9Ik0xOTIuMDU3NzE4LDE4Ni4xODA0MTggQzE5MC4zMTI5NzEsMTg5LjQ4NjI1NSAxODIuOTY2NjY4LDE5NC43MjA0OTYgMTc3LjgyNDI1NSwxOTMuMzQzMDY0IEMxNzIuNjgxODQzLDE5MS45NjU2MzIgMTcwLjExMDYzNywxODQuNTI3NSAxNzAuOTM3MDk2LDE3OC45MjU5NDQgQzE3MS42NzE3MjYsMTcyLjU4OTc1NyAxNzcuMTgxNDU0LDE3Mi4yMjI0NDIgMTg0LjE2MDQ0MiwxNzUuMzQ0NjIxIEMxOTEuNjkwNDAzLDE3OC44MzQxMTUgMTk0LjA3Nzk1MiwxODEuNzcyNjM2IDE5Mi4wNTc3MTgsMTg2LjE4MDQxOCBMMTkyLjA1NzcxOCwxODYuMTgwNDE4IFoiLz4mI3hhOyAgICAgICAgICAgIDxwYXRoIGZpbGw9InVybCgjbGluZWFyR3JhZGllbnQtMjApIiBzdHJva2Utd2lkdGg9IjMuNzUiIHN0cm9rZT0iI0U2OEMzRiIgZD0iTTk3LjEwNjc0NTUsNjYuMzQzODQyNSBDMTAwLjc3OTg5Nyw2Mi45NDYxNzcxIDEwOS42ODcyOSw1Mi41Njk1MjM0IDEyNi41ODM3ODgsNjMuNDA1MzIxMSBDMTI5LjcwNTk2Nyw2NS40MjU1NTQ2IDEzMi4yNzcxNzQsNjUuNjA5MjEyMSAxMzguMjQ2MDQ1LDY4LjE4MDQxODQgQzE1MC4yNzU2MTcsNzMuMTM5MTczMiAxNDQuNTgyMjMyLDg1LjA3NjkxNjQgMTMxLjcyNjIwMSw4OS4xMTczODMzIEMxMjYuMjE2NDczLDkwLjg2MjEzMDQgMTIxLjI1NzcxOCw5Ny41NjU2MzI0IDExMS4zNDAyMDksOTYuOTIyODMwOCBDMTAyLjgwMDEzMSw5Ni40NjM2ODY4IDEwMC41OTYyNCw5MC44NjIxMzA0IDk1LjM2MTk5ODQsODcuODMxNzgwMiBDODYuMDg3MjkwMyw4Mi41OTc1MzkgODQuNzA5ODU4NCw3NS41MjY3MjE5IDg5Ljc2MDQ0Miw3MS43NjE3NDEzIEM5NC44MTEwMjU3LDY3Ljk5Njc2MDggOTYuNzM5NDMwNCw2Ni42MTkzMjg5IDk3LjEwNjc0NTUsNjYuMzQzODQyNSBMOTcuMTA2NzQ1NSw2Ni4zNDM4NDI1IFoiLz4mI3hhOyAgICAgICAgICAgIDxwYXRoIHN0cm9rZS13aWR0aD0iMi41IiBzdHJva2U9IiNFNjhDM0YiIGQ9Ik0xMzguNDI5NzAzLDc1Ljk4NTg2NTggQzEzMy4zNzkxMTksNzYuMjYxMzUyMiAxMjIuNDUxNDkzLDg3LjE4ODk3ODcgMTEwLjk3Mjg5Myw4Ny4xODg5Nzg3IEM5OS40OTQyOTQyLDg3LjE4ODk3ODcgOTIuNjA3MTM0Niw3Ni41MzY4Mzg2IDkwLjg2MjM4NzUsNzYuNTM2ODM4NiIvPiYjeGE7ICAgICAgICAgICAgPHBhdGggZmlsbD0idXJsKCNsaW5lYXJHcmFkaWVudC0yMSkiIGQ9Ik0xMDIuODAwMTMxLDY1LjQyNTU1NDYgQzEwNC42MzY3MDcsNjMuNzcyNjM2MyAxMTAuNDIxOTIxLDU5LjI3MzAyNTQgMTE4LjA0MzcxMSw2My44NjQ0NjUxIEMxMTkuNjk2NjI5LDY0Ljc4Mjc1MyAxMjEuMzQ5NTQ3LDY1Ljc5Mjg2OTcgMTIzLjczNzA5Niw2Ny4xNzAzMDE2IEMxMjguNjA0MDIyLDcwLjAxNjk5NDIgMTI2LjIxNjQ3Myw3NC4xNDkyOSAxMjAuMzM5NDMsNzYuNzIwNDk2MiBDMTE3LjY3NjM5NSw3Ny44MjI0NDE3IDExMy4yNjg2MTMsODAuMjA5OTkwNCAxMDkuOTYyNzc3LDgwLjAyNjMzMjggQzEwNi4yODk2MjUsNzkuNjU5MDE3NiAxMDMuODEwMjQ3LDc3LjI3MTQ2ODkgMTAxLjQyMjY5OSw3NS43MTAzNzk1IEM5Ni45MjMwODc5LDcyLjc3MTg1ODEgOTcuMTk4NTc0Myw3MC4yOTI0ODA2IDk5LjMxMDYzNjYsNjguMzY0MDc2IEMxMDAuODcxNzI2LDY2Ljg5NDgxNTMgMTAyLjYxNjQ3Myw2NS41MTczODMzIDEwMi44MDAxMzEsNjUuNDI1NTU0NiBMMTAyLjgwMDEzMSw2NS40MjU1NTQ2IFoiLz4mI3hhOyAgICAgICAgPC9nPiYjeGE7ICAgIDwvZz4mI3hhOzwvc3ZnPg==;rounded=0;html=1;fontSize=10;" parent="1" vertex="1">
          <mxGeometry x="-440" y="-351.99500000000006" width="33.57" height="40" as="geometry" />
        </mxCell>
        <mxCell id="e4Tr5Wjy2GleVXx7RCsq-5" value="Windows" style="shape=image;verticalLabelPosition=bottom;labelBackgroundColor=none;verticalAlign=top;aspect=fixed;imageAspect=0;image=data:image/svg+xml,PHN2ZyB4bWxuczp4bGluaz0iaHR0cDovL3d3dy53My5vcmcvMTk5OS94bGluayIgeG1sbnM9Imh0dHA6Ly93d3cudzMub3JnLzIwMDAvc3ZnIiBwcmVzZXJ2ZUFzcGVjdFJhdGlvPSJ4TWlkWU1pZCIgdmVyc2lvbj0iMS4xIiB2aWV3Qm94PSIwIDYuMjE3MjQ4OTM3OTAwODc3ZS0xNSAyNTYgMjU2Ljc5MTIyOTI0ODA0NjkiIGhlaWdodD0iMjU2Ljc5MTIyOTI0ODA0NjkiIHdpZHRoPSIyNTYiPiYjeGE7ICAgIDxnPiYjeGE7ICAgICAgICA8cGF0aCBmaWxsPSIjMDBBREVGIiBkPSJNMCwzNi4zNTczODE4IEwxMDQuNjE5MDg0LDIyLjEwOTM0NTQgTDEwNC42NjQ4MTcsMTIzLjAyMjkyIEwwLjA5NTU2OTMxNTEsMTIzLjYxODQxMSBMMCwzNi4zNTczODE4IFogTTEwNC41NjkyNDgsMTM0LjY1MDEyOSBMMTA0LjY1MDQ1MiwyMzUuNjUxNjUxIEwwLjA4MTIwNDYwMjEsMjIxLjI3NDkxOSBMMC4wNzUzNDE0NTM5LDEzMy45NzI2NDIgTDEwNC41NjkyNDgsMTM0LjY1MDEyOSBaIE0xMTcuMjUxNTMsMjAuMjQ1NDUwNiBMMjU1Ljk2Nzc1Myw2LjIxNzI0ODk0ZS0xNSBMMjU1Ljk2Nzc1MywxMjEuNzM5NDc3IEwxMTcuMjUxNTMsMTIyLjg0MDcyMyBMMTE3LjI1MTUzLDIwLjI0NTQ1MDYgWiBNMjU2LDEzNS41OTk5NTkgTDI1NS45Njc0NiwyNTYuNzkxMjMyIEwxMTcuMjUxMjM3LDIzNy4yMTMwMDcgTDExNy4wNTY4NzQsMTM1LjM3MzA1NSBMMjU2LDEzNS41OTk5NTkgWiIvPiYjeGE7ICAgIDwvZz4mI3hhOzwvc3ZnPg==;rounded=0;html=1;fontSize=10;" parent="1" vertex="1">
          <mxGeometry x="-498" y="-351.99500000000006" width="39.85" height="40" as="geometry" />
        </mxCell>
        <mxCell id="e4Tr5Wjy2GleVXx7RCsq-6" value="macOS" style="shape=image;verticalLabelPosition=bottom;labelBackgroundColor=none;verticalAlign=top;aspect=fixed;imageAspect=0;image=data:image/svg+xml,PHN2ZyB4bWxuczp4bGluaz0iaHR0cDovL3d3dy53My5vcmcvMTk5OS94bGluayIgeG1sbnM9Imh0dHA6Ly93d3cudzMub3JnLzIwMDAvc3ZnIiBwcmVzZXJ2ZUFzcGVjdFJhdGlvPSJ4TWlkWU1pZCIgdmVyc2lvbj0iMS4xIiB2aWV3Qm94PSIwIDAgMjU2IDMxNC40MDAyMDc1MTk1MzEyNSIgaGVpZ2h0PSIzMTQuNDAwMjA3NTE5NTMxMjUiIHdpZHRoPSIyNTYiPiYjeGE7ICAgIDxnPiYjeGE7ICAgICAgICA8cGF0aCBmaWxsPSIjMDAwMDAwIiBkPSJNMjEzLjgwMzM5NCwxNjcuMDMwOTQzIEMyMTQuMjQ1MiwyMTQuNjA5NjQ2IDI1NS41NDI0ODIsMjMwLjQ0MjYzOSAyNTYsMjMwLjY0NDcyNyBDMjU1LjY1MDgxMiwyMzEuNzYxMzU3IDI0OS40MDEzODMsMjUzLjIwODI5MyAyMzQuMjQyNjMsMjc1LjM2MTQ0NiBDMjIxLjEzODU1NSwyOTQuNTEzOTY5IDIwNy41MzgyNTMsMzEzLjU5NjMzMyAxODYuMTEzNzU5LDMxMy45OTE1NDUgQzE2NS4wNjIwNTEsMzE0LjM3OTQ0MiAxNTguMjkyNzUyLDMwMS41MDc4MjggMTM0LjIyNDY5LDMwMS41MDc4MjggQzExMC4xNjM4OTgsMzAxLjUwNzgyOCAxMDIuNjQyODk5LDMxMy41OTYzMDEgODIuNzE1MTEyNiwzMTQuMzc5NDQyIEM2Mi4wMzUwNDA3LDMxNS4xNjIwMSA0Ni4yODczODMxLDI5My42Njg1MjUgMzMuMDc0NDA3OSwyNzQuNTg2MTYyIEM2LjA3NTI5MzE3LDIzNS41NTI1NDQgLTE0LjU1NzYxNjksMTY0LjI4NjMyOCAxMy4xNDcxNjYsMTE2LjE4MDQ3IEMyNi45MTAzMTExLDkyLjI5MDkwNTMgNTEuNTA2MDkxNyw3Ny4xNjMwMzU2IDc4LjIwMjYxMjUsNzYuNzc1MTA5NiBDOTguNTA5OTE0NSw3Ni4zODc3NDU2IDExNy42Nzc1OTQsOTAuNDM3MTg1MSAxMzAuMDkxNzA1LDkwLjQzNzE4NTEgQzE0Mi40OTc5NDUsOTAuNDM3MTg1MSAxNjUuNzkwNzU1LDczLjU0MTUwMjkgMTkwLjI3NzYyNyw3Ni4wMjI4NDc0IEMyMDAuNTI4NjY4LDc2LjQ0OTUwNTUgMjI5LjMwMzUwOSw4MC4xNjM2ODc4IDI0Ny43ODA2MjUsMTA3LjIwOTM4OSBDMjQ2LjI5MTgyNSwxMDguMTMyMzMzIDIxMy40NDYzNSwxMjcuMjUzNDA1IDIxMy44MDMzOTQsMTY3LjAzMDk4OCBNMTc0LjIzOTE0Miw1MC4xOTg3MDMzIEMxODUuMjE4MzMxLDM2LjkwODgzMTkgMTkyLjYwNzk1OCwxOC40MDgxMDE5IDE5MC41OTE5ODgsMCBDMTc0Ljc2NjMxMiwwLjYzNjA1MDIyNSAxNTUuNjI5NTE0LDEwLjU0NTc5MDkgMTQ0LjI3ODEwOSwyMy44MjgzNTA2IEMxMzQuMTA1MDcsMzUuNTkwNjc1OCAxMjUuMTk1Nzc1LDU0LjQxNzAyNzUgMTI3LjU5OTY1Nyw3Mi40NjA3OTMyIEMxNDUuMjM5MjMxLDczLjgyNTU0MzMgMTYzLjI1OTQxMyw2My40OTcwMjYyIDE3NC4yMzkxNDIsNTAuMTk4NzI0OSIvPiYjeGE7ICAgIDwvZz4mI3hhOzwvc3ZnPg==;rounded=0;html=1;fontSize=10;" parent="1" vertex="1">
          <mxGeometry x="-550" y="-351.99500000000006" width="32.61" height="40" as="geometry" />
        </mxCell>
        <mxCell id="KMpQC8Qn8a6NOah1u6SE-15" value="" style="shape=image;verticalLabelPosition=bottom;labelBackgroundColor=none;verticalAlign=top;aspect=fixed;imageAspect=0;image=data:image/svg+xml,PHN2ZyB4bWxuczp4bGluaz0iaHR0cDovL3d3dy53My5vcmcvMTk5OS94bGluayIgeG1sbnM9Imh0dHA6Ly93d3cudzMub3JnLzIwMDAvc3ZnIiBwcmVzZXJ2ZUFzcGVjdFJhdGlvPSJ4TWlkWU1pZCIgdmVyc2lvbj0iMS4xIiB2aWV3Qm94PSItMS40MjEwODU0NzE1MjAyMDA0ZS0xNCAwIDI1NiAyNTYuMDA0ODgyODEyNSIgaGVpZ2h0PSIyNTYuMDA0ODgyODEyNSIgd2lkdGg9IjI1NiI+JiN4YTsgICAgPGc+JiN4YTsgICAgICAgIDxwYXRoIGZpbGw9IiMwMDAwMDAiIGQ9Ik0yNTQuMjUxMTY2LDEyNC44NjE4ODIgTDI0My41MDM3ODQsMTE4LjIwODk3MyBDMjQzLjQxMzI4NCwxMTcuMTYyMTE5IDI0My4zMTA1NTYsMTE2LjExNzcxIDI0My4xOTgwNDMsMTE1LjA3ODE5MyBMMjUyLjQzMzg0NSwxMDYuNDYzNjU1IEMyNTMuMzczMDgsMTA1LjU4ODAxNSAyNTMuNzkzNzc4LDEwNC4yOTE2NzYgMjUzLjUzOTQwMiwxMDMuMDM2OTE4IEMyNTMuMjkyMzY0LDEwMS43NzcyNjggMjUyLjQwOTM4NiwxMDAuNzQwMTk3IDI1MS4yMDg0MzgsMTAwLjI5MjU5MyBMMjM5LjQwMTk3Miw5NS44Nzc3MDM5IEMyMzkuMTA2MDE1LDk0Ljg1NTMwODQgMjM4Ljc5NTM4Myw5My44NDAyNTA3IDIzOC40Nzc0MTMsOTIuODMwMDg0OCBMMjQ1Ljg0MjA4NSw4Mi42MDEyMzgyIEMyNDYuNTkyOTgzLDgxLjU2MTcyMTMgMjQ2Ljc0NzA3Niw4MC4yMDkxMjYzIDI0Ni4yNTc4OTIsNzkuMDIyODU0MSBDMjQ1Ljc2ODcwNyw3Ny44NDE0NzM3IDI0NC42OTk4MzksNzYuOTk1MTg0NiAyNDMuNDM1Mjk4LDc2Ljc4NzI4MTIgTDIzMC45ODU1NTQsNzQuNzYyMDU3NiBDMjMwLjUwMTI2MSw3My44MTc5MzE3IDIyOS45OTc0MDEsNzIuODg4NDgxMiAyMjkuNDg4NjQ5LDcxLjk2NjM2ODYgTDIzNC43MjA0NzcsNjAuNDgyNzYzOSBDMjM1LjI1NjEzNCw1OS4zMTM2MTMxIDIzNS4xNDYwNjcsNTcuOTUzNjgwMyAyMzQuNDMxODU4LDU2Ljg5MjE1MDEgQzIzMy43MjAwOTUsNTUuODI1NzI4IDIzMi41MTQyNTUsNTUuMjAyMDE3OSAyMzEuMjI3Nyw1NS4yNTA5MzYzIEwyMTguNTkyMDY2LDU1LjY5MTIwMjMgQzIxNy45MzkwMDUsNTQuODc0MjY0MyAyMTcuMjczNzE0LDU0LjA2NDY2NDEgMjE2LjU5NjE5NCw1My4yNjk3Mzk0IEwyMTkuNDk5NTAzLDQwLjk2MTg1ODkgQzIxOS43OTMwMTQsMzkuNzExOTkyNyAyMTkuNDIzNjgsMzguNDAzNDI0MyAyMTguNTEzNzk3LDM3LjQ5NTk4NzIgQzIxNy42MTEyNTEsMzYuNTkwOTk1OSAyMTYuMzAwMjM3LDM2LjIxNjc2OTkgMjE1LjA1MDM3MSwzNi41MTAyODA1IEwyMDIuNzQ0OTM2LDM5LjQxMTE0NDIgQzIwMS45NDc1NjYsMzguNzM2MDY5NyAyMDEuMTM3OTY1LDM4LjA2ODMzMyAyMDAuMzE4NTgxLDM3LjQxNTI3MTcgTDIwMC43NjEyOTMsMjQuNzc5NjM3NyBDMjAwLjgxMDIxMiwyMy41MDA0MjA0IDIwMC4xODY1MDIsMjIuMjg0Nzk3MSAxOTkuMTIwMDc5LDIxLjU3NTQ3OTYgQzE5OC4wNTEyMTEsMjAuODYxMjcwNCAxOTYuNjk4NjE3LDIwLjc1MzY0OTggMTk1LjUzMTkxMiwyMS4yODQ0MTQ5IEwxODQuMDUwNzUzLDI2LjUxODY4ODQgQzE4My4xMjM3NDgsMjYuMDA5OTM2NiAxODIuMTk0Mjk4LDI1LjUwNjA3NjYgMTgxLjI1NTA2NCwyNS4wMTkzMzgxIEwxNzkuMjI0OTQ4LDEyLjU2NzE0ODIgQzE3OS4wMTk0OTEsMTEuMzA1MDUyNCAxNzguMTczMjAyLDEwLjIzMzczODQgMTc2Ljk4OTM3Niw5Ljc0NDU1NCBDMTc1LjgwNzk5NSw5LjI1MjkyMzY0IDE3NC40NTI5NTQsOS40MTE5MDg1OCAxNzMuNDEzNDM3LDEwLjE2MDM2MDggTDE2My4xNzcyNTMsMTcuNTI1MDMyNSBDMTYyLjE2OTUzMywxNy4yMDQ2MTY3IDE2MS4xNTY5MjEsMTYuODk2NDMwNSAxNjAuMTM0NTI2LDE2LjYwMjkxOTggTDE1NS43MTk2MzYsNC43OTQwMDc0OSBDMTU1LjI3MjAzMiwzLjU5MDYxMzc3IDE1NC4yMzQ5NjEsMi43MDc2MzU4NiAxNTIuOTc1MzExLDIuNDU4MTUxOCBDMTUxLjcxODEwNywyLjIxMTExMzY2IDE1MC40MjQyMTUsMi42MjkzNjYzNSAxNDkuNTUxMDIsMy41NjM3MDg2MyBMMTQwLjkzNjQ4MiwxMi44MDY4NDg2IEMxMzkuODk2OTY2LDEyLjY5MTg5MDIgMTM4Ljg1MDExMSwxMi41ODY3MTU2IDEzNy44MDU3MDIsMTIuNTAxMTA4MyBMMTMxLjE1Mjc5NCwxLjc1MTI4MDI5IEMxMzAuNDgwMTY1LDAuNjYyODQ0OTEzIDEyOS4yODkwMDEsMCAxMjguMDA3MzM4LDAgQzEyNi43MjU2NzUsMCAxMjUuNTM0NTEsMC42NjI4NDQ5MTMgMTI0Ljg2NDMyOCwxLjc1MTI4MDI5IEwxMTguMjExNDE5LDEyLjUwMTEwODMgQzExNy4xNjQ1NjUsMTIuNTg2NzE1NiAxMTYuMTE3NzEsMTIuNjkxODkwMiAxMTUuMDc4MTkzLDEyLjgwNjg0ODYgTDEwNi40NjEyMDksMy41NjM3MDg2MyBDMTA1LjU4ODAxNSwyLjYyOTM2NjM1IDEwNC4yOTE2NzYsMi4yMTExMTM2NiAxMDMuMDM2OTE4LDIuNDU4MTUxOCBDMTAxLjc3NzI2OCwyLjcxMDA4MTc5IDEwMC43NDAxOTcsMy41OTA2MTM3NyAxMDAuMjkyNTkzLDQuNzk0MDA3NDkgTDk1Ljg3NzcwMzksMTYuNjAyOTE5OCBDOTQuODU1MzA4NCwxNi44OTY0MzA1IDkzLjg0MjY5NjYsMTcuMjA3MDYyNiA5Mi44MzI1MzA4LDE3LjUyNTAzMjUgTDgyLjU5ODc5MjMsMTAuMTYwMzYwOCBDODEuNTU5Mjc1NCw5LjQwOTQ2MjY2IDgwLjIwNDIzNDUsOS4yNTA0Nzc3MiA3OS4wMjA0MDgyLDkuNzQ0NTU0IEM3Ny44MzkwMjc3LDEwLjIzMzczODQgNzYuOTkwMjkyNywxMS4zMDUwNTI0IDc2Ljc4NDgzNTMsMTIuNTY3MTQ4MiBMNzQuNzU0NzE5OSwyNS4wMTkzMzgxIEM3My44MTU0ODU3LDI1LjUwNjA3NjYgNzIuODg2MDM1MywyNi4wMDc0OTA2IDcxLjk1OTAzMDgsMjYuNTE4Njg4NCBMNjAuNDc3ODcyLDIxLjI4NDQxNDkgQzU5LjMxMTE2NzIsMjAuNzUxMjAzOSA1Ny45NTEyMzQ0LDIwLjg2MTI3MDQgNTYuODg5NzA0MiwyMS41NzU0Nzk2IEM1NS44MjMyODIxLDIyLjI4NDc5NzEgNTUuMTk5NTcyLDIzLjUwMDQyMDQgNTUuMjQ4NDkwNCwyNC43Nzk2Mzc3IEw1NS42ODg3NTY0LDM3LjQxNTI3MTcgQzU0Ljg3MTgxODQsMzguMDY4MzMzIDU0LjA2MjIxODEsMzguNzM2MDY5NyA1My4yNjI0MDE2LDM5LjQxMTE0NDIgTDQwLjk1Njk2NzEsMzYuNTEwMjgwNSBDMzkuNzA3MTAwOCwzNi4yMTkyMTU4IDM4LjM5NjA4NjUsMzYuNTkwOTk1OSAzNy40OTEwOTUzLDM3LjQ5NTk4NzIgQzM2LjU4MTIxMjMsMzguNDAzNDI0MyAzNi4yMTE4NzgsMzkuNzExOTkyNyAzNi41MDUzODg3LDQwLjk2MTg1ODkgTDM5LjQwMzgwNjUsNTMuMjY5NzM5NCBDMzguNzMxMTc3OSw1NC4wNjcxMSAzOC4wNjU4ODcsNTQuODc0MjY0MyAzNy40MTI4MjU4LDU1LjY5MTIwMjMgTDI0Ljc3NzE5MTgsNTUuMjUwOTM2MyBDMjMuNTAyODY2Myw1NS4yMTQyNDc1IDIyLjI4NDc5NzEsNTUuODI1NzI4IDIxLjU3MzAzMzcsNTYuODkyMTUwMSBDMjAuODU4ODI0NCw1Ny45NTM2ODAzIDIwLjc1MTIwMzksNTkuMzEzNjEzMSAyMS4yODE5NjksNjAuNDgyNzYzOSBMMjYuNTE2MjQyNSw3MS45NjYzNjg2IEMyNi4wMDc0OTA2LDcyLjg4ODQ4MTIgMjUuNTAzNjMwNyw3My44MTc5MzE3IDI1LjAxNjg5MjIsNzQuNzYyMDU3NiBMMTIuNTY3MTQ4Miw3Ni43ODcyODEyIEMxMS4zMDI2MDY0LDc2Ljk5MjczODcgMTAuMjM2MTg0NCw3Ny44MzkwMjc3IDkuNzQ0NTU0LDc5LjAyMjg1NDEgQzkuMjU1MzY5NTYsODAuMjA5MTI2MyA5LjQxNDM1NDUxLDgxLjU2MTcyMTMgMTAuMTYwMzYwOCw4Mi42MDEyMzgyIEwxNy41MjUwMzI1LDkyLjgzMDA4NDggQzE3LjIwNDYxNjcsOTMuODQwMjUwNyAxNi44OTM5ODQ2LDk0Ljg1NTMwODQgMTYuNjAwNDczOSw5NS44Nzc3MDM5IEw0Ljc5MTU2MTU3LDEwMC4yOTI1OTMgQzMuNTkzMDU5NywxMDAuNzQwMTk3IDIuNzEwMDgxNzksMTAxLjc3NzI2OCAyLjQ2MDU5NzcyLDEwMy4wMzY5MTggQzIuMjExMTEzNjYsMTA0LjI5NDEyMiAyLjYyOTM2NjM1LDEwNS41ODgwMTUgMy41NjYxNTQ1NSwxMDYuNDYzNjU1IEwxMi44MDQ0MDI3LDExNS4wNzgxOTMgQzEyLjY4OTQ0NDMsMTE2LjExNzcxIDEyLjU4NjcxNTYsMTE3LjE2NDU2NSAxMi40OTg2NjI0LDExOC4yMDg5NzMgTDEuNzUxMjgwMjksMTI0Ljg2MTg4MiBDMC42NjI4NDQ5MTMsMTI1LjUzNDUxIC0xLjQyMTA4NTQ3ZS0xNCwxMjYuNzIzMjI5IC0xLjQyMTA4NTQ3ZS0xNCwxMjguMDA3MzM4IEMtMS40MjEwODU0N2UtMTQsMTI5LjI5MTQ0NyAwLjY2Mjg0NDkxMywxMzAuNDgwMTY1IDEuNzUxMjgwMjksMTMxLjE1MDM0OCBMMTIuNDk4NjYyNCwxMzcuODAzMjU2IEMxMi41ODY3MTU2LDEzOC44NTAxMTEgMTIuNjg5NDQ0MywxMzkuODk0NTIgMTIuODA0NDAyNywxNDAuOTM0MDM3IEwzLjU2NjE1NDU1LDE0OS41NTEwMiBDMi42MjkzNjYzNSwxNTAuNDI0MjE1IDIuMjExMTEzNjYsMTUxLjcyMDU1MyAyLjQ2MDU5NzcyLDE1Mi45NzUzMTEgQzIuNzEwMDgxNzksMTU0LjIzNDk2MSAzLjU5MzA1OTcsMTU1LjI2OTU4NiA0Ljc5MTU2MTU3LDE1NS43MTk2MzYgTDE2LjYwMDQ3MzksMTYwLjEzNDUyNiBDMTYuODkzOTg0NiwxNjEuMTU2OTIxIDE3LjIwNDYxNjcsMTYyLjE3MTk3OSAxNy41MjUwMzI1LDE2My4xODIxNDUgTDEwLjE2MDM2MDgsMTczLjQxMzQzNyBDOS40MTE5MDg1OCwxNzQuNDU1NCA5LjI1MjkyMzY0LDE3NS44MDc5OTUgOS43NDQ1NTQsMTc2Ljk4OTM3NiBDMTAuMjM2MTg0NCwxNzguMTc1NjQ4IDExLjMwNTA1MjQsMTc5LjAyMTkzNyAxMi41Njk1OTQxLDE3OS4yMjQ5NDggTDI1LjAxNjg5MjIsMTgxLjI1MDE3MiBDMjUuNTAzNjMwNywxODIuMTk0Mjk4IDI2LjAwMjU5ODgsMTgzLjEyMzc0OCAyNi41MTYyNDI1LDE4NC4wNTA3NTMgTDIxLjI4MTk2OSwxOTUuNTI5NDY2IEMyMC43NDg3NTc5LDE5Ni42OTYxNzEgMjAuODU4ODI0NCwxOTguMDUzNjU3IDIxLjU3MzAzMzcsMTk5LjEyMDA3OSBDMjIuMjg3MjQzLDIwMC4xODg5NDcgMjMuNTAyODY2MywyMDAuODEyNjU4IDI0Ljc3NzE5MTgsMjAwLjc2MTI5MyBMMzcuNDA3OTM0LDIwMC4zMTg1ODEgQzM4LjA2NTg4NywyMDEuMTQwNDExIDM4LjcyODczMTksMjAxLjk0NTEyIDM5LjQwMzgwNjUsMjAyLjc0NDkzNiBMMzYuNTA1Mzg4NywyMTUuMDU1MjYzIEMzNi4yMTE4NzgsMjE2LjMwMjY4MyAzNi41ODEyMTIzLDIxNy42MDYzNTkgMzcuNDkxMDk1MywyMTguNTEzNzk3IEMzOC4zOTM2NDA2LDIxOS40MjYxMjYgMzkuNzA3MTAwOCwyMTkuNzkwNTY4IDQwLjk1Njk2NzEsMjE5LjQ5NzA1NyBMNTMuMjYyNDAxNiwyMTYuNTk4NjM5IEM1NC4wNjIyMTgxLDIxNy4yNzg2MDYgNTQuODcxODE4NCwyMTcuOTM5MDA1IDU1LjY4ODc1NjQsMjE4LjU4OTYyIEw1NS4yNDg0OTA0LDIzMS4yMjc3IEM1NS4xOTk1NzIsMjMyLjUwNjkxNyA1NS44MjMyODIxLDIzMy43MjAwOTUgNTYuODg5NzA0MiwyMzQuNDM0MzA0IEM1Ny45NTEyMzQ0LDIzNS4xNDYwNjcgNTkuMzExMTY3MiwyMzUuMjUzNjg4IDYwLjQ3Nzg3MiwyMzQuNzIwNDc3IEw3MS45NTkwMzA4LDIyOS40ODg2NDkgQzcyLjg4MzU4OTQsMjMwLjAwMjI5MyA3My44MTMwMzk4LDIzMC41MDEyNjEgNzQuNzU0NzE5OSwyMzAuOTg4IEw3Ni43ODQ4MzUzLDI0My40MzI4NTIgQzc2Ljk5MDI5MjcsMjQ0LjY5OTgzOSA3Ny44MzY1ODE4LDI0NS43NzExNTMgNzkuMDIwNDA4MiwyNDYuMjU3ODkyIEM4MC4yMDE3ODg2LDI0Ni43NDk1MjIgODEuNTU5Mjc1NCwyNDYuNTkwNTM3IDgyLjU5ODc5MjMsMjQ1Ljg0NDUzMSBMOTIuODI3NjM4OSwyMzguNDc0OTY4IEM5My44Mzc4MDQ4LDIzOC43OTUzODMgOTQuODUyODYyNSwyMzkuMTA4NDYxIDk1Ljg3NTI1OCwyMzkuNDAxOTcyIEwxMDAuMjkwMTQ4LDI1MS4yMDU5OTMgQzEwMC43Mzc3NTEsMjUyLjQwNDQ5NCAxMDEuNzc0ODIyLDI1My4yOTIzNjQgMTAzLjAzNDQ3MiwyNTMuNTM2OTU2IEMxMDQuMjkxNjc2LDI1My43OTEzMzIgMTA1LjU4NTU2OSwyNTMuMzcwNjM0IDEwNi40NTg3NjMsMjUyLjQzMTQgTDExNS4wNzU3NDcsMjQzLjE5MzE1MSBDMTE2LjExNTI2NCwyNDMuMzEzMDAyIDExNy4xNjIxMTksMjQzLjQxMzI4NCAxMTguMjA4OTczLDI0My41MDYyMjkgTDEyNC44NjE4ODIsMjU0LjI1MzYxMiBDMTI1LjUzMjA2NSwyNTUuMzM3MTU1IDEyNi43MjMyMjksMjU2LjAwNDg5MiAxMjguMDA0ODkyLDI1Ni4wMDQ4OTIgQzEyOS4yODY1NTUsMjU2LjAwNDg5MiAxMzAuNDc3NzE5LDI1NS4zMzk2MDEgMTMxLjE1MDM0OCwyNTQuMjUzNjEyIEwxMzcuODAzMjU2LDI0My41MDYyMjkgQzEzOC44NTAxMTEsMjQzLjQxMzI4NCAxMzkuODk0NTIsMjQzLjMxMzAwMiAxNDAuOTM0MDM3LDI0My4xOTMxNTEgTDE0OS41NDg1NzQsMjUyLjQzMTQgQzE1MC40MjE3NjksMjUzLjM3MDYzNCAxNTEuNzE4MTA3LDI1My43OTEzMzIgMTUyLjk3Mjg2NiwyNTMuNTM2OTU2IEMxNTQuMjMyNTE1LDI1My4yODk5MTggMTU1LjI2OTU4NiwyNTIuNDA0NDk0IDE1NS43MTcxOSwyNTEuMjA1OTkzIEwxNjAuMTMyMDgsMjM5LjQwMTk3MiBDMTYxLjE1NDQ3NSwyMzkuMTA4NDYxIDE2Mi4xNjk1MzMsMjM4Ljc5NTM4MyAxNjMuMTc5Njk5LDIzOC40NzQ5NjggTDE3My40MTA5OTEsMjQ1Ljg0NDUzMSBDMTc0LjQ1MDUwOCwyNDYuNTkwNTM3IDE3NS44MDU1NDksMjQ2Ljc0OTUyMiAxNzYuOTg2OTMsMjQ2LjI1Nzg5MiBDMTc4LjE3MDc1NiwyNDUuNzcxMTUzIDE3OS4wMTcwNDUsMjQ0LjY5NzM5NCAxNzkuMjIyNTAyLDI0My40MzI4NTIgTDE4MS4yNTI2MTgsMjMwLjk4OCBDMTgyLjE5MTg1MiwyMzAuNTAxMjYxIDE4My4xMjEzMDIsMjI5Ljk5NDk1NSAxODQuMDQ4MzA3LDIyOS40ODg2NDkgTDE5NS41Mjk0NjYsMjM0LjcyMDQ3NyBDMTk2LjY5NjE3MSwyMzUuMjUzNjg4IDE5OC4wNTM2NTcsMjM1LjE0NjA2NyAxOTkuMTE3NjM0LDIzNC40MzQzMDQgQzIwMC4xODQwNTYsMjMzLjcyMDA5NSAyMDAuODA1MzIsMjMyLjUwOTM2MyAyMDAuNzU4ODQ3LDIzMS4yMjc3IEwyMDAuMzE4NTgxLDIxOC41ODk2MiBDMjAxLjEzNTUxOSwyMTcuOTM2NTU5IDIwMS45NDUxMiwyMTcuMjc4NjA2IDIwMi43NDI0OSwyMTYuNTk4NjM5IEwyMTUuMDQ3OTI1LDIxOS40OTcwNTcgQzIxNi4yOTc3OTEsMjE5Ljc5MDU2OCAyMTcuNjA4ODA1LDIxOS40MjYxMjYgMjE4LjUxMTM1MSwyMTguNTEzNzk3IEMyMTkuNDIxMjM0LDIxNy42MDYzNTkgMjE5Ljc5MDU2OCwyMTYuMzAyNjgzIDIxOS40OTcwNTcsMjE1LjA1NTI2MyBMMjE2LjU5ODYzOSwyMDIuNzQ0OTM2IEMyMTcuMjczNzE0LDIwMS45NDUxMiAyMTcuOTM5MDA1LDIwMS4xNDA0MTEgMjE4LjU4OTYyLDIwMC4zMTg1ODEgTDIzMS4yMjUyNTQsMjAwLjc2MTI5MyBDMjMyLjQ5OTU4LDIwMC44MTI2NTggMjMzLjcxNzY0OSwyMDAuMTg4OTQ3IDIzNC40Mjk0MTIsMTk5LjEyMDA3OSBDMjM1LjE0MzYyMSwxOTguMDUzNjU3IDIzNS4yNTM2ODgsMTk2LjY5NjE3MSAyMzQuNzE4MDMxLDE5NS41Mjk0NjYgTDIyOS40ODYyMDMsMTg0LjA1MDc1MyBDMjI5Ljk5NzQwMSwxODMuMTIzNzQ4IDIzMC40OTg4MTUsMTgyLjE5NDI5OCAyMzAuOTgzMTA4LDE4MS4yNTAxNzIgTDI0My40MzI4NTIsMTc5LjIyNDk0OCBDMjQ0LjY5OTgzOSwxNzkuMDIxOTM3IDI0NS43NjYyNjIsMTc4LjE3NTY0OCAyNDYuMjU1NDQ2LDE3Ni45ODkzNzYgQzI0Ni43NDQ2MywxNzUuODA3OTk1IDI0Ni41OTA1MzcsMTc0LjQ1NTQgMjQ1LjgzOTYzOSwxNzMuNDEzNDM3IEwyMzguNDc0OTY4LDE2My4xODIxNDUgQzIzOC43OTI5MzcsMTYyLjE3MTk3OSAyMzkuMTAzNTcsMTYxLjE1NjkyMSAyMzkuMzk5NTI2LDE2MC4xMzQ1MjYgTDI1MS4yMDU5OTMsMTU1LjcxOTYzNiBDMjUyLjQwNjk0LDE1NS4yNjk1ODYgMjUzLjI5MjM2NCwxNTQuMjM0OTYxIDI1My41MzY5NTYsMTUyLjk3NTMxMSBDMjUzLjc5MTMzMiwxNTEuNzE4MTA3IDI1My4zNzA2MzQsMTUwLjQyNDIxNSAyNTIuNDMxNCwxNDkuNTUxMDIgTDI0My4xOTU1OTcsMTQwLjkzNDAzNyBDMjQzLjMwODExLDEzOS44OTQ1MiAyNDMuNDEwODM4LDEzOC44NDc2NjUgMjQzLjUwMTMzOCwxMzcuODAzMjU2IEwyNTQuMjQ4NzIsMTMxLjE1MDM0OCBDMjU1LjMzNzE1NSwxMzAuNDgwMTY1IDI1NiwxMjkuMjg5MDAxIDI1NiwxMjguMDA3MzM4IEMyNTYsMTI2LjcyNTY3NSAyNTUuMzM5NjAxLDEyNS41MzQ1MSAyNTQuMjUxMTY2LDEyNC44NjE4ODIgTDI1NC4yNTExNjYsMTI0Ljg2MTg4MiBaIE0xODIuMzE5MDQsMjE0LjAxODE5MiBDMTc4LjIxNDc4MywyMTMuMTMyNzY4IDE3NS42MDQ5ODQsMjA5LjA4NzIxMiAxNzYuNDg1NTE2LDIwNC45NzA3MjUgQzE3Ny4zNjM2MDIsMjAwLjg1OTEzIDE4MS40MDY3MTEsMTk4LjI0MTk5MyAxODUuNTA4NTIzLDE5OS4xMjc0MTcgQzE4OS42MTI3OCwyMDAuMDA1NTAzIDE5Mi4yMjc0NzEsMjA0LjA1ODM5NiAxOTEuMzQ2OTM5LDIwOC4xNjc1NDYgQzE5MC40NjY0MDcsMjEyLjI3NjY5NSAxODYuNDIwODUxLDIxNC44OTYyNzggMTgyLjMxOTA0LDIxNC4wMTgxOTIgTDE4Mi4zMTkwNCwyMTQuMDE4MTkyIFogTTE3OC42NjcyNzgsMTg5LjMxOTI2OSBDMTc0LjkyMjU3MSwxODguNTE3MDA3IDE3MS4yMzkwMTIsMTkwLjg5OTMzNSAxNzAuNDM2NzUsMTk0LjY1MTM4IEwxNjYuNjIxMTExLDIxMi40NTc2OTMgQzE1NC44NDY0NDIsMjE3LjgwMjAzMyAxNDEuNzcwNTQyLDIyMC43NzEzODMgMTI4LDIyMC43NzEzODMgQzExMy45MTM5MzQsMjIwLjc3MTM4MyAxMDAuNTU0MzA3LDIxNy42NTUyNzggODguNTY5Mjg4NCwyMTIuMDgzNDY3IEw4NC43NTYwOTU3LDE5NC4yNzcxNTQgQzgzLjk1MzgzMzIsMTkwLjUzMDAwMSA4MC4yNzAyNzQ0LDE4OC4xNDI3ODEgNzYuNTI4MDEzNSwxODguOTQ3NDg5IEw2MC44MDgwNzE1LDE5Mi4zMjI4NjIgQzU3Ljg5MDA4NjQsMTg5LjMxOTI2OSA1NS4xNzUxMTI3LDE4Ni4xMjAwMDMgNTIuNjgwMjcyMSwxODIuNzQyMTg1IEwxMjkuMTY5MTUxLDE4Mi43NDIxODUgQzEzMC4wMzUwMDcsMTgyLjc0MjE4NSAxMzAuNjEyMjQ1LDE4Mi41ODU2NDUgMTMwLjYxMjI0NSwxODEuNzk4MDU5IEwxMzAuNjEyMjQ1LDE1NC43NDEyNjcgQzEzMC42MTIyNDUsMTUzLjk1MzY4IDEzMC4wMzUwMDcsMTUzLjc5NzE0MSAxMjkuMTY5MTUxLDE1My43OTcxNDEgTDEwNi43OTg3NDYsMTUzLjc5NzE0MSBMMTA2Ljc5ODc0NiwxMzYuNjQ2MzM1IEwxMzAuOTkzODA5LDEzNi42NDYzMzUgQzEzMy4yMDI0NzYsMTM2LjY0NjMzNSAxNDIuODAyNzIxLDEzNy4yNzczODMgMTQ1Ljg3MjM1MywxNDkuNTQ4NTc0IEMxNDYuODMzNjAxLDE1My4zMjI2MzIgMTQ4Ljk0NDQzMiwxNjUuNTk4NzE2IDE1MC4zODc1MjYsMTY5LjUyOTMxMyBDMTUxLjgyNTcyOCwxNzMuOTM2ODY1IDE1Ny42ODEyNjYsMTgyLjc0MjE4NSAxNjMuOTIwODEzLDE4Mi43NDIxODUgTDIwMi4wMzU2MTksMTgyLjc0MjE4NSBDMjAyLjQ2ODU0NywxODIuNzQyMTg1IDIwMi45MzA4MjYsMTgyLjY5MzI2NiAyMDMuNDE3NTY1LDE4Mi42MDUyMTMgQzIwMC43NzM1MjMsMTg2LjE5ODI3MyAxOTcuODcyNjU5LDE4OS41OTgxMDQgMTk0Ljc0OTIxNywxOTIuNzc1MzU3IEwxNzguNjY3Mjc4LDE4OS4zMTkyNjkgTDE3OC42NjcyNzgsMTg5LjMxOTI2OSBaIE03Mi44NzYyNTE2LDIxMy42NDY0MTEgQzY4Ljc3MTk5NDIsMjE0LjUzMTgzNSA2NC43MzEzMzA3LDIxMS45MTQ2OTggNjMuODQ4MzUyOCwyMDcuODAzMTAzIEM2Mi45NzAyNjY4LDIwMy42ODQxNyA2NS41ODAwNjU3LDE5OS42NDEwNjEgNjkuNjg0MzIzMiwxOTguNzU1NjM3IEM3My43ODg1ODA2LDE5Ny44Nzc1NTEgNzcuODMxNjksMjAwLjQ5NDY4OCA3OC43MTIyMjIsMjA0LjYwNjI4MyBDNzkuNTkwMzA4LDIwOC43MTU0MzIgNzYuOTc4MDYzMSwyMTIuNzY1ODc5IDcyLjg3NjI1MTYsMjEzLjY0NjQxMSBMNzIuODc2MjUxNiwyMTMuNjQ2NDExIFogTTQzLjg2MDI3NjcsOTUuOTg1MzI0NSBDNDUuNTYyNjM4NSw5OS44Mjc4NjgyIDQzLjgzMDkyNTYsMTA0LjMzMDgxMSAzOS45OTMyNzM3LDEwNi4wMzA3MjcgQzM2LjE1NTYyMTgsMTA3LjczNTUzNSAzMS42NjQ5MDg3LDEwNi4wMDEzNzYgMjkuOTYyNTQ2OCwxMDIuMTU2Mzg2IEMyOC4yNjAxODUsOTguMzExMzk2NSAyOS45OTE4OTc5LDkzLjgxNTc5MTUgMzMuODI5NTQ5OCw5Mi4xMTA5ODM3IEMzNy42Njk2NDc2LDkwLjQwODYyMTkgNDIuMTU3OTE0OSw5Mi4xNDAzMzQ4IDQzLjg2MDI3NjcsOTUuOTg1MzI0NSBMNDMuODYwMjc2Nyw5NS45ODUzMjQ1IFogTTM0Ljk0MjQ0NDQsMTE3LjEyNTQzIEw1MS4zMTc4OTM0LDEwOS44NDg4MTEgQzU0LjgxNTU2MjIsMTA4LjI5NTY1MSA1Ni4zOTU2Mjc5LDEwNC4xOTYyODUgNTQuODQyNDY3MywxMDAuNjkxMjc5IEw1MS40Njk1NDA2LDkzLjA2NDg5MzQgTDY0LjczMzc3NjcsOTMuMDY0ODkzNCBMNjQuNzMzNzc2NywxNTIuODUzMDE1IEwzNy45NzI5NDIsMTUyLjg1MzAxNSBDMzUuNjUxNzYxOCwxNDQuNjkzNDE5IDM0LjQwNjc4NzQsMTM2LjA4MTMyNyAzNC40MDY3ODc0LDEyNy4xODA2MTYgQzM0LjQwNjc4NzQsMTIzLjc4MzIzIDM0LjU5MDIzMTYsMTIwLjQyNDk3OSAzNC45NDI0NDQ0LDExNy4xMjU0MyBMMzQuOTQyNDQ0NCwxMTcuMTI1NDMgWiBNMTA2LjgwMzYzOCwxMTEuMzE4ODExIEwxMDYuODAzNjM4LDkzLjY5NTk0MTMgTDEzOC4zOTAyNzcsOTMuNjk1OTQxMyBDMTQwLjAyMTcwOCw5My42OTU5NDEzIDE0OS45MTA1NzEsOTUuNTgxNzQ3MyAxNDkuOTEwNTcxLDEwMi45NzU3NyBDMTQ5LjkxMDU3MSwxMDkuMTE1MDM1IDE0Mi4zMjU3NjYsMTExLjMxNjM2NSAxMzYuMDg4NjY1LDExMS4zMTYzNjUgTDEwNi44MDM2MzgsMTExLjMxNjM2NSBMMTA2LjgwMzYzOCwxMTEuMzE4ODExIFogTTIyMS41OTU2NTgsMTI3LjE4MDYxNiBDMjIxLjU5NTY1OCwxMjkuNTE4OTE4IDIyMS41MTAwNTEsMTMxLjgzMjc2IDIyMS4zMzg4MzcsMTM0LjEyOTQ4MSBMMjExLjczNjE0NiwxMzQuMTI5NDgxIEMyMTAuNzc0ODk5LDEzNC4xMjk0ODEgMjEwLjM4ODQ0MywxMzQuNzYwNTI5IDIxMC4zODg0NDMsMTM1LjcwMjIwOSBMMjEwLjM4ODQ0MywxNDAuMTEyMjA3IEMyMTAuMzg4NDQzLDE1MC40OTI3IDIwNC41MzUzNTEsMTUyLjc1MDI4NyAxOTkuNDA2MjUyLDE1My4zMjUwNzggQzE5NC41MjE3NDYsMTUzLjg3NTQxMSAxODkuMTA2NDc0LDE1MS4yODAyODcgMTg4LjQzODczNywxNDguMjkxMzcgQzE4NS41NTc0NDEsMTMyLjA4NDY5IDE4MC43NTYwOTYsMTI4LjYyMzcxIDE3My4xNzM3MzcsMTIyLjY0MzQzIEMxODIuNTgzMiwxMTYuNjY4MDQyIDE5Mi4zNzQyMjYsMTA3Ljg1MjkzOSAxOTIuMzc0MjI2LDk2LjA1MzgxMDMgQzE5Mi4zNzQyMjYsODMuMzEzMDAxNiAxODMuNjM5ODM4LDc1LjI4NzkzMDkgMTc3LjY4NjQ2Myw3MS4zNTI0NDIxIEMxNjkuMzMzNjM5LDY1Ljg0NjY3MTMgMTYwLjA4NTYwNyw2NC43NDM1NjAzIDE1Ny41OTA3NjcsNjQuNzQzNTYwMyBMNTguMjc4OTg4LDY0Ljc0MzU2MDMgQzcxLjc0NjIzNTYsNDkuNzEzMzY4NSA4OS45OTc3MDY5LDM5LjA2NjI2OTIgMTEwLjY0MTI5LDM1LjE5MTkyODUgTDEyMi4zNDc0NzQsNDcuNDcyOTAzOCBDMTI0Ljk5Mzk2Miw1MC4yNDQxMzM2IDEyOS4zNzcwNTQsNTAuMzQ2ODYyMyAxMzIuMTQ1ODM4LDQ3LjY5NzkyODYgTDE0NS4yNDM3NTEsMzUuMTY5OTE1MiBDMTcyLjY4OTQ0NCw0MC4yNzk0NDY2IDE5NS45MjU3MDUsNTcuMzY0MjEzMSAyMDkuMzE3MTI5LDgwLjgwMzQ4NTQgTDIwMC4zNTAzNzgsMTAxLjA1NTcyMSBDMTk4LjgwMjExLDEwNC41NjA3MjggMjAwLjM4MjE3NSwxMDguNjYwMDkzIDIwMy44NzczOTgsMTEwLjIxMzI1NCBMMjIxLjE0MDcxNywxMTcuODgxMjIgQzIyMS40MzkxMTksMTIwLjk0NTk2IDIyMS41OTU2NTgsMTI0LjA0MjQ5OCAyMjEuNTk1NjU4LDEyNy4xODA2MTYgTDIyMS41OTU2NTgsMTI3LjE4MDYxNiBaIE0xMjIuMzUyMzY2LDI0Ljc0NTM5NDggQzEyNS4zODUzMDksMjEuODM5NjM5MiAxMzAuMTk2NDM4LDIxLjk1NDU5NzYgMTMzLjA5OTc0OCwyNC45OTI0MzI5IEMxMzUuOTk4MTY2LDI4LjAzNzYwNjEgMTM1Ljg4ODA5OSwzMi44NTM2MjY4IDEzMi44NDc4MTgsMzUuNzU2OTM2NSBDMTI5LjgxNDg3NCwzOC42NjI2OTIgMTI1LjAwMzc0NSwzOC41NTAxNzk2IDEyMi4xMDA0MzYsMzUuNTA3NDUyNCBDMTE5LjIwNDQ2NCwzMi40NjcxNzExIDExOS4zMTQ1MywyNy42NTExNTAzIDEyMi4zNTIzNjYsMjQuNzQ1Mzk0OCBMMTIyLjM1MjM2NiwyNC43NDUzOTQ4IFogTTIxMS4zMzUwMTUsOTYuMzU0NjU4NyBDMjEzLjAzNDkzMSw5Mi41MTIxMTUgMjE3LjUyNTY0NCw5MC43Nzc5NTYxIDIyMS4zNjMyOTYsOTIuNDgyNzYzOSBDMjI1LjIwMDk0OCw5NC4xODUxMjU3IDIyNi45MzI2NjEsOTguNjg1NjIyNiAyMjUuMjMwMjk5LDEwMi41MjgxNjYgQzIyMy41MzAzODMsMTA2LjM3MzE1NiAyMTkuMDM5NjcsMTA4LjEwNzMxNSAyMTUuMTk5NTcyLDEwNi40MDI1MDcgQzIxMS4zNjY4MTIsMTA0LjcwMDE0NSAyMDkuNjM1MDk5LDEwMC4yMDIwOTQgMjExLjMzNTAxNSw5Ni4zNTQ2NTg3IEwyMTEuMzM1MDE1LDk2LjM1NDY1ODcgWiIvPiYjeGE7ICAgIDwvZz4mI3hhOzwvc3ZnPg==;rounded=0;html=1;fillColor=#FAD9D5;strokeColor=#D0CEE2;fontColor=#1A1A1A;" parent="1" vertex="1">
          <mxGeometry x="-400" y="-555" width="40" height="40" as="geometry" />
        </mxCell>
        <mxCell id="qqEp2eh4nWf15jRmr-CD-1" value="" style="shape=image;verticalLabelPosition=bottom;labelBackgroundColor=default;verticalAlign=top;aspect=fixed;imageAspect=0;image=data:image/svg+xml,PHN2ZyB4bWxucz0iaHR0cDovL3d3dy53My5vcmcvMjAwMC9zdmciIGZpbGw9Im5vbmUiIHZpZXdCb3g9IjAgMCAyMDYgMjMxIiBoZWlnaHQ9IjIzMSIgd2lkdGg9IjIwNiI+JiN4YTs8cGF0aCBmaWxsPSIjRkZDMTMxIiBkPSJNMTQzLjE0MyA4NEMxNDMuMTQzIDk2LjE1MDMgMTMzLjI5MyAxMDYgMTIxLjE0MyAxMDZDMTA4Ljk5MiAxMDYgOTkuMTQyNiA5Ni4xNTAzIDk5LjE0MjYgODRDOTkuMTQyNiA3MS44NDk3IDEwOC45OTIgNjIgMTIxLjE0MyA2MkMxMzMuMjkzIDYyIDE0My4xNDMgNzEuODQ5NyAxNDMuMTQzIDg0WiIvPiYjeGE7PGVsbGlwc2UgZmlsbD0iIzI0QzhEQiIgdHJhbnNmb3JtPSJyb3RhdGUoMTgwIDg0LjE0MjYgMTQ3KSIgcnk9IjIyIiByeD0iMjIiIGN5PSIxNDciIGN4PSI4NC4xNDI2Ii8+JiN4YTs8cGF0aCBmaWxsPSIjRkZDMTMxIiBkPSJNMTY2LjczOCAxNTQuNTQ4QzE1Ny44NiAxNjAuMjg2IDE0OC4wMjMgMTY0LjI2OSAxMzcuNzU3IDE2Ni4zNDFDMTM5Ljg1OCAxNjAuMjgyIDE0MSAxNTMuNzc0IDE0MSAxNDdDMTQxIDE0NC41NDMgMTQwLjg1IDE0Mi4xMjEgMTQwLjU1OCAxMzkuNzQzQzE0NC45NzUgMTM4LjIwNCAxNDkuMjE1IDEzNi4xMzkgMTUzLjE4MyAxMzMuNTc1QzE2Mi43MyAxMjcuNDA0IDE3MC4yOTIgMTE4LjYwOCAxNzQuOTYxIDEwOC4yNDRDMTc5LjYzIDk3Ljg3OTcgMTgxLjIwNyA4Ni4zODc2IDE3OS41MDIgNzUuMTQ4N0MxNzcuNzk4IDYzLjkwOTggMTcyLjg4NCA1My40MDIxIDE2NS4zNTIgNDQuODg4M0MxNTcuODIgMzYuMzc0NCAxNDcuOTkgMzAuMjE2NSAxMzcuMDQyIDI3LjE1NDZDMTI2LjA5NSAyNC4wOTI2IDExNC40OTYgMjQuMjU2OCAxMDMuNjQgMjcuNjI3NEM5Mi43ODM5IDMwLjk5OCA4My4xMzE5IDM3LjQzMTcgNzUuODQzNyA0Ni4xNTUzQzc0LjkxMDIgNDcuMjcyNyA3NC4wMjA2IDQ4LjQyMTYgNzMuMTc2IDQ5LjU5OTNDNjEuOTI5MiA1MC44NDg4IDUxLjAzNjMgNTQuMDMxOCA0MC45NjI5IDU4Ljk1NTZDNDQuMjQxNyA0OC40NTg2IDQ5LjU2NTMgMzguNjU5MSA1Ni42NzkgMzAuMTQ0MkM2Ny4wNTA1IDE3LjcyOTggODAuNzg2MSA4LjU3NDI2IDk2LjIzNTQgMy43Nzc2MkMxMTEuNjg1IC0xLjAxOTAxIDEyOC4xOSAtMS4yNTI2NyAxNDMuNzY5IDMuMTA0NzRDMTU5LjM0OCA3LjQ2MjE1IDE3My4zMzcgMTYuMjI1MiAxODQuMDU2IDI4LjM0MTFDMTk0Ljc3NSA0MC40NTcgMjAxLjc2NyA1NS40MTAxIDIwNC4xOTMgNzEuNDA0QzIwNi42MTkgODcuMzk3OCAyMDQuMzc0IDEwMy43NTIgMTk3LjczIDExOC41MDFDMTkxLjA4NiAxMzMuMjUgMTgwLjMyNCAxNDUuNzY3IDE2Ni43MzggMTU0LjU0OFpNNDEuOTYzMSA3NC4yNzVMNjIuNTU1NyA3Ni44MDQyQzYzLjA0NTkgNzIuODEzIDYzLjk0MDEgNjguOTAxOCA2NS4yMTM4IDY1LjEyNzRDNTcuMDQ2NSA2Ny4wMDE2IDQ5LjIwODggNzAuMDg3IDQxLjk2MzEgNzQuMjc1WiIgY2xpcC1ydWxlPSJldmVub2RkIiBmaWxsLXJ1bGU9ImV2ZW5vZGQiLz4mI3hhOzxwYXRoIGZpbGw9IiMyNEM4REIiIGQ9Ik0zOC40MDQ1IDc2LjQ1MTlDNDcuMzQ5MyA3MC42NzA5IDU3LjI2NzcgNjYuNjcxMiA2Ny42MTcxIDY0LjYxMzJDNjUuMjc3NCA3MC45NjY5IDY0IDc3LjgzNDMgNjQgODUuMDAwMUM2NCA4Ny4xNDM0IDY0LjExNDMgODkuMjYgNjQuMzM3MSA5MS4zNDQyQzYwLjAwOTMgOTIuODczMiA1NS44NTMzIDk0LjkwOTIgNTEuOTU5OSA5Ny40MjU2QzQyLjQxMjggMTAzLjU5NiAzNC44NTA1IDExMi4zOTIgMzAuMTgxNiAxMjIuNzU2QzI1LjUxMjYgMTMzLjEyIDIzLjkzNTcgMTQ0LjYxMiAyNS42NDAzIDE1NS44NTFDMjcuMzQ0OSAxNjcuMDkgMzIuMjU4NCAxNzcuNTk4IDM5Ljc5MDYgMTg2LjExMkM0Ny4zMjI3IDE5NC42MjYgNTcuMTUzIDIwMC43ODQgNjguMTAwMyAyMDMuODQ2Qzc5LjA0NzYgMjA2LjkwNyA5MC42NDYyIDIwNi43NDMgMTAxLjUwMiAyMDMuMzczQzExMi4zNTkgMjAwLjAwMiAxMjIuMDExIDE5My41NjggMTI5LjI5OSAxODQuODQ1QzEzMC4yMzcgMTgzLjcyMiAxMzEuMTMxIDE4Mi41NjcgMTMxLjk3OSAxODEuMzgzQzE0My4yMzUgMTgwLjExNCAxNTQuMTMyIDE3Ni45MSAxNjQuMjA1IDE3MS45NjJDMTYwLjkyOSAxODIuNDkgMTU1LjU5NiAxOTIuMzE5IDE0OC40NjQgMjAwLjg1NkMxMzguMDkyIDIxMy4yNyAxMjQuMzU3IDIyMi40MjYgMTA4LjkwNyAyMjcuMjIyQzkzLjQ1OCAyMzIuMDE5IDc2Ljk1MjQgMjMyLjI1MyA2MS4zNzM2IDIyNy44OTVDNDUuNzk0OCAyMjMuNTM4IDMxLjgwNTUgMjE0Ljc3NSAyMS4wODY3IDIwMi42NTlDMTAuMzY3OSAxOTAuNTQzIDMuMzc1NTcgMTc1LjU5IDAuOTQ5ODIzIDE1OS41OTZDLTEuNDc1OTIgMTQzLjYwMiAwLjc2ODEzOSAxMjcuMjQ4IDcuNDEyMzcgMTEyLjQ5OUMxNC4wNTY2IDk3Ljc0OTcgMjQuODE4MyA4NS4yMzI3IDM4LjQwNDUgNzYuNDUxOVpNMTYzLjA2MiAxNTYuNzExTDE2My4wNjIgMTU2LjcxMUMxNjIuOTU0IDE1Ni43NzMgMTYyLjg0NiAxNTYuODM1IDE2Mi43MzggMTU2Ljg5N0MxNjIuODQ2IDE1Ni44MzUgMTYyLjk1NCAxNTYuNzczIDE2My4wNjIgMTU2LjcxMVoiIGNsaXAtcnVsZT0iZXZlbm9kZCIgZmlsbC1ydWxlPSJldmVub2RkIi8+JiN4YTs8L3N2Zz4=;" parent="1" vertex="1">
          <mxGeometry x="-370" y="-487.4200000000001" width="40" height="44.85" as="geometry" />
        </mxCell>
        <mxCell id="qqEp2eh4nWf15jRmr-CD-2" value="" style="shape=image;verticalLabelPosition=bottom;labelBackgroundColor=default;verticalAlign=top;aspect=fixed;imageAspect=0;image=data:image/svg+xml,PHN2ZyB4bWxuczp4bGluaz0iaHR0cDovL3d3dy53My5vcmcvMTk5OS94bGluayIgeG1sbnM9Imh0dHA6Ly93d3cudzMub3JnLzIwMDAvc3ZnIiB2aWV3Qm94PSIwIDAgMjU2IDI1NyIgcHJlc2VydmVBc3BlY3RSYXRpbz0ieE1pZFlNaWQgbWVldCIgaGVpZ2h0PSIzMiIgd2lkdGg9IjMxLjg4IiBjbGFzcz0iaWNvbmlmeSBpY29uaWZ5LS1sb2dvcyIgcm9sZT0iaW1nIiBhcmlhLWhpZGRlbj0idHJ1ZSI+PGRlZnM+PGxpbmVhckdyYWRpZW50IHkyPSI3OC40MTElIiB5MT0iNy42NTIlIiB4Mj0iNTcuNjM2JSIgeDE9Ii0uODI4JSIgaWQ9Ikljb25pZnlJZDE4MTMwODhmZTFmYmMwMWZiNDY2Ij48c3RvcCBzdG9wLWNvbG9yPSIjNDFEMUZGIiBvZmZzZXQ9IjAlIi8+PHN0b3Agc3RvcC1jb2xvcj0iI0JEMzRGRSIgb2Zmc2V0PSIxMDAlIi8+PC9saW5lYXJHcmFkaWVudD48bGluZWFyR3JhZGllbnQgeTI9Ijg5LjAzJSIgeTE9IjIuMjQyJSIgeDI9IjUwLjMxNiUiIHgxPSI0My4zNzYlIiBpZD0iSWNvbmlmeUlkMTgxMzA4OGZlMWZiYzAxZmI0NjciPjxzdG9wIHN0b3AtY29sb3I9IiNGRkVBODMiIG9mZnNldD0iMCUiLz48c3RvcCBzdG9wLWNvbG9yPSIjRkZERDM1IiBvZmZzZXQ9IjguMzMzJSIvPjxzdG9wIHN0b3AtY29sb3I9IiNGRkE4MDAiIG9mZnNldD0iMTAwJSIvPjwvbGluZWFyR3JhZGllbnQ+PC9kZWZzPjxwYXRoIGQ9Ik0yNTUuMTUzIDM3LjkzOEwxMzQuODk3IDI1Mi45NzZjLTIuNDgzIDQuNDQtOC44NjIgNC40NjYtMTEuMzgyLjA0OEwuODc1IDM3Ljk1OGMtMi43NDYtNC44MTQgMS4zNzEtMTAuNjQ2IDYuODI3LTkuNjdsMTIwLjM4NSAyMS41MTdhNi41MzcgNi41MzcgMCAwIDAgMi4zMjItLjAwNGwxMTcuODY3LTIxLjQ4M2M1LjQzOC0uOTkxIDkuNTc0IDQuNzk2IDYuODc3IDkuNjJaIiBmaWxsPSJ1cmwoI0ljb25pZnlJZDE4MTMwODhmZTFmYmMwMWZiNDY2KSIvPjxwYXRoIGQ9Ik0xODUuNDMyLjA2M0w5Ni40NCAxNy41MDFhMy4yNjggMy4yNjggMCAwIDAtMi42MzQgMy4wMTRsLTUuNDc0IDkyLjQ1NmEzLjI2OCAzLjI2OCAwIDAgMCAzLjk5NyAzLjM3OGwyNC43NzctNS43MThjMi4zMTgtLjUzNSA0LjQxMyAxLjUwNyAzLjkzNiAzLjgzOGwtNy4zNjEgMzYuMDQ3Yy0uNDk1IDIuNDI2IDEuNzgyIDQuNSA0LjE1MSAzLjc4bDE1LjMwNC00LjY0OWMyLjM3Mi0uNzIgNC42NTIgMS4zNiA0LjE1IDMuNzg4bC0xMS42OTggNTYuNjIxYy0uNzMyIDMuNTQyIDMuOTc5IDUuNDczIDUuOTQzIDIuNDM3bDEuMzEzLTIuMDI4bDcyLjUxNi0xNDQuNzJjMS4yMTUtMi40MjMtLjg4LTUuMTg2LTMuNTQtNC42NzJsLTI1LjUwNSA0LjkyMmMtMi4zOTYuNDYyLTQuNDM1LTEuNzctMy43NTktNC4xMTRsMTYuNjQ2LTU3LjcwNWMuNjc3LTIuMzUtMS4zNy00LjU4My0zLjc2OS00LjExM1oiIGZpbGw9InVybCgjSWNvbmlmeUlkMTgxMzA4OGZlMWZiYzAxZmI0NjcpIi8+PC9zdmc+;" parent="1" vertex="1">
          <mxGeometry x="-540" y="-551" width="32" height="32" as="geometry" />
        </mxCell>
        <mxCell id="qqEp2eh4nWf15jRmr-CD-3" value="" style="shape=image;verticalLabelPosition=bottom;labelBackgroundColor=default;verticalAlign=top;aspect=fixed;imageAspect=0;image=data:image/svg+xml,PHN2ZyB4bWxuczp4bGluaz0iaHR0cDovL3d3dy53My5vcmcvMTk5OS94bGluayIgeG1sbnM9Imh0dHA6Ly93d3cudzMub3JnLzIwMDAvc3ZnIiB2aWV3Qm94PSIwIDAgMjU2IDE5OCIgcHJlc2VydmVBc3BlY3RSYXRpbz0ieE1pZFlNaWQgbWVldCIgaGVpZ2h0PSIzNiIgd2lkdGg9IjM3LjA3IiBjbGFzcz0iaWNvbmlmeSBpY29uaWZ5LS1sb2dvcyIgcm9sZT0iaW1nIiBhcmlhLWhpZGRlbj0idHJ1ZSI+PHBhdGggZD0iTTIwNC44IDBIMjU2TDEyOCAyMjAuOEwwIDBoOTcuOTJMMTI4IDUxLjJMMTU3LjQ0IDBoNDcuMzZaIiBmaWxsPSIjNDFCODgzIi8+PHBhdGggZD0ibTAgMGwxMjggMjIwLjhMMjU2IDBoLTUxLjJMMTI4IDEzMi40OEw1MC41NiAwSDBaIiBmaWxsPSIjNDFCODgzIi8+PHBhdGggZD0iTTUwLjU2IDBMMTI4IDEzMy4xMkwyMDQuOCAwaC00Ny4zNkwxMjggNTEuMkw5Ny45MiAwSDUwLjU2WiIgZmlsbD0iIzM1NDk1RSIvPjwvc3ZnPg==;" parent="1" vertex="1">
          <mxGeometry x="-520" y="-482.99500000000006" width="37" height="36" as="geometry" />
        </mxCell>
        <mxCell id="qqEp2eh4nWf15jRmr-CD-5" value="" style="shape=image;verticalLabelPosition=bottom;labelBackgroundColor=none;verticalAlign=top;aspect=fixed;imageAspect=0;image=data:image/svg+xml,PHN2ZyB4bWxuczp4bGluaz0iaHR0cDovL3d3dy53My5vcmcvMTk5OS94bGluayIgeG1sbnM9Imh0dHA6Ly93d3cudzMub3JnLzIwMDAvc3ZnIiBwcmVzZXJ2ZUFzcGVjdFJhdGlvPSJ4TWlkWU1pZCIgdmVyc2lvbj0iMS4xIiB2aWV3Qm94PSIwIDAgMjU2IDI1NiIgaGVpZ2h0PSIyNTYiIHdpZHRoPSIyNTYiPiYjeGE7CTxnPiYjeGE7CQk8cG9seWdvbiBwb2ludHM9IjAgMTI4IDAgMCAxMjggMCAyNTYgMCAyNTYgMTI4IDI1NiAyNTYgMTI4IDI1NiAwIDI1NiIgdHJhbnNmb3JtPSJ0cmFuc2xhdGUoMTI4LjAwMDAwMCwgMTI4LjAwMDAwMCkgc2NhbGUoMSwgLTEpIHRyYW5zbGF0ZSgtMTI4LjAwMDAwMCwgLTEyOC4wMDAwMDApIiBmaWxsPSIjMDA3QUNDIi8+JiN4YTsJCTxwYXRoIHRyYW5zZm9ybT0idHJhbnNsYXRlKDEwMS42MzQ2NDAsIDE3Ni4xNDI5OTMpIHJvdGF0ZSgtMTgwLjAwMDAwMCkgdHJhbnNsYXRlKC0xMDEuNjM0NjQwLCAtMTc2LjE0Mjk5MykiIGZpbGw9IiNGRkZGRkYiIGQ9Ik0xNDYuNjU4MTMyLDIyMy40MzY4NjMgTDE0Ni43Mzk0MDEsMjEyLjk1MzA1NCBMMTMwLjA3OTA4NCwyMTIuOTUzMDU0IEwxMTMuNDE4NzY3LDIxMi45NTMwNTQgTDExMy40MTg3NjcsMTY1LjYxMzM3MSBMMTEzLjQxODc2NywxMTguMjczNjg5IEwxMDEuNjM0NjQsMTE4LjI3MzY4OSBMODkuODUwNTEyNiwxMTguMjczNjg5IEw4OS44NTA1MTI2LDE2NS42MTMzNzEgTDg5Ljg1MDUxMjYsMjEyLjk1MzA1NCBMNzMuMTkwMTk1MSwyMTIuOTUzMDU0IEw1Ni41Mjk4Nzc2LDIxMi45NTMwNTQgTDU2LjUyOTg3NzYsMjIzLjIzMzY4OSBDNTYuNTI5ODc3NiwyMjguOTIyNTc3IDU2LjY1MTc4MjQsMjMzLjY3Njg2MyA1Ni44MTQzMjIxLDIzMy43OTg3NjggQzU2LjkzNjIyNjksMjMzLjk2MTMwOCA3Ny4yMTMwNTIyLDIzNC4wNDI1NzcgMTAxLjc5NzE3OSwyMzQuMDAxOTQzIEwxNDYuNTM2MjI3LDIzMy44ODAwMzggTDE0Ni42NTgxMzIsMjIzLjQzNjg2MyBaIi8+JiN4YTsJCTxwYXRoIHRyYW5zZm9ybT0idHJhbnNsYXRlKDE5NC41Nzg1MDcsIDE3Ni4xOTAyNDApIHNjYWxlKDEsIC0xKSB0cmFuc2xhdGUoLTE5NC41Nzg1MDcsIC0xNzYuMTkwMjQwKSIgZmlsbD0iI0ZGRkZGRiIgZD0iTTIwNi41NjY2MzEsMjM0LjI3MjE0NSBDMjEzLjA2ODIxOSwyMzIuNjQ2NzQ4IDIxOC4wMjU2NzksMjI5Ljc2MTY2OCAyMjIuNTc2NzksMjI1LjA0ODAxOCBDMjI0LjkzMzYxNiwyMjIuNTI4NjUzIDIyOC40MjgyMTksMjE3LjkzNjkwNyAyMjguNzEyNjYzLDIxNi44Mzk3NjQgQzIyOC43OTM5MzMsMjE2LjUxNDY4NCAyMTcuNjU5OTY1LDIwOS4wMzc4NTkgMjEwLjkxNDU2OCwyMDQuODUyNDYyIEMyMTAuNjcwNzU4LDIwNC42ODk5MjIgMjA5LjY5NTUyLDIwNS43NDY0MyAyMDguNTk4Mzc3LDIwNy4zNzE4MjcgQzIwNS4zMDY5NDksMjEyLjE2Njc0OCAyMDEuODUyOTgxLDIxNC4yMzkxMjkgMTk2LjU3MDQ0MSwyMTQuNjA0ODQzIEMxODguODA5MTcxLDIxNS4xMzMwOTcgMTgzLjgxMTA3NiwyMTEuMDY5NjA1IDE4My44NTE3MTEsMjA0LjI4MzU3MyBDMTgzLjg1MTcxMSwyMDIuMjkyNDYyIDE4NC4xMzYxNTUsMjAxLjExNDA0OSAxODQuOTQ4ODU0LDE5OS40ODg2NTMgQzE4Ni42NTU1MiwxOTUuOTUzNDE0IDE4OS44MjUwNDQsMTkzLjg0MDM5OSAxOTkuNzgwNiwxODkuNTMzMDk3IEMyMTguMTA2OTQ5LDE4MS42NDk5MjIgMjI1Ljk0OTQ4OSwxNzYuNDQ4NjUzIDIzMC44MjU2NzksMTY5LjA1MzA5NyBDMjM2LjI3MDc1OCwxNjAuODA0MjA4IDIzNy40ODk4MDYsMTQ3LjYzODQ5NCAyMzMuNzkyMDI4LDEzNy44NDU0NzggQzIyOS43Mjg1MzYsMTI3LjE5OTEyOSAyMTkuNjUxMDc2LDExOS45NjYxMTMgMjA1LjQ2OTQ4OSwxMTcuNTY4NjUzIEMyMDEuMDgwOTE3LDExNi43OTY1ODkgMTkwLjY3ODM3NywxMTYuOTE4NDk0IDE4NS45NjQ3MjcsMTE3Ljc3MTgyNyBDMTc1LjY4NDA5MiwxMTkuNjAwMzk5IDE2NS45MzE3MTEsMTI0LjY3OTc2NCAxNTkuOTE3NzQzLDEzMS4zNDM4OTEgQzE1Ny41NjA5MTcsMTMzLjk0NDUyNiAxNTIuOTY5MTcxLDE0MC43MzA1NTcgMTUzLjI1MzYxNiwxNDEuMjE4MTc2IEMxNTMuMzc1NTIsMTQxLjM4MDcxNiAxNTQuNDMyMDI4LDE0Mi4wMzA4NzUgMTU1LjYxMDQ0MSwxNDIuNzIxNjY4IEMxNTYuNzQ4MjE5LDE0My4zNzE4MjcgMTYxLjA1NTUyLDE0NS44NTA1NTcgMTY1LjExOTAxMiwxNDguMjA3MzgzIEwxNzIuNDczOTMzLDE1Mi40NzQwNDkgTDE3NC4wMTgwNiwxNTAuMTk4NDk0IEMxNzYuMTcxNzExLDE0Ni45MDcwNjUgMTgwLjg4NTM2MiwxNDIuMzk2NTg5IDE4My43Mjk4MDYsMTQwLjg5MzA5NyBDMTkxLjg5NzQyNSwxMzYuNTg1Nzk1IDIwMy4xMTI2NjMsMTM3LjE5NTMxOSAyMDguNjM5MDEyLDE0Mi4xNTI3OCBDMjEwLjk5NTgzOCwxNDQuMzA2NDMgMjExLjk3MTA3NiwxNDYuNTQxMzUxIDIxMS45NzEwNzYsMTQ5LjgzMjc4IEMyMTEuOTcxMDc2LDE1Mi43OTkxMjkgMjExLjYwNTM2MiwxNTQuMDk5NDQ2IDIxMC4wNjEyMzUsMTU2LjMzNDM2NyBDMjA4LjA3MDEyMywxNTkuMTc4ODExIDIwNC4wMDY2MzEsMTYxLjU3NjI3MiAxOTIuNDY2MzE0LDE2Ni41NzQzNjcgQzE3OS4yNTk5NjUsMTcyLjI2MzI1NiAxNzMuNTcxMDc2LDE3NS43OTg0OTQgMTY4LjM2OTgwNiwxODEuNDA2MTEzIEMxNjUuMzYyODIyLDE4NC42NTY5MDcgMTYyLjUxODM3NywxODkuODU4MTc2IDE2MS4zMzk5NjUsMTk0LjIwNjExMyBDMTYwLjM2NDcyNywxOTcuODIyNjIxIDE2MC4xMjA5MTcsMjA2Ljg4NDIwOCAxNjAuODkyOTgxLDIxMC41NDEzNTEgQzE2My42MTU1MiwyMjMuMzAwNzE2IDE3My4yNDU5OTYsMjMyLjE5OTc2NCAxODcuMTQzMTM5LDIzNC44NDEwMzQgQzE5MS42NTM2MTYsMjM1LjY5NDM2NyAyMDIuMTM3NDI1LDIzNS4zNjkyODcgMjA2LjU2NjYzMSwyMzQuMjcyMTQ1IFoiLz4mI3hhOwk8L2c+JiN4YTs8L3N2Zz4=;rounded=0;html=1;fillColor=#FAD9D5;strokeColor=#D0CEE2;fontColor=#1A1A1A;" parent="1" vertex="1">
          <mxGeometry x="-490" y="-555" width="40" height="40" as="geometry" />
        </mxCell>
        <mxCell id="qqEp2eh4nWf15jRmr-CD-10" value="&lt;span style=&quot;color: rgb(31, 31, 31); font-family: monospace; font-style: normal; font-variant-ligatures: normal; font-variant-caps: normal; font-weight: 400; letter-spacing: normal; orphans: 2; text-align: left; text-indent: 0px; text-transform: none; widows: 2; word-spacing: 0px; -webkit-text-stroke-width: 0px; white-space: pre-wrap; background-color: rgb(255, 255, 255); text-decoration-thickness: initial; text-decoration-style: initial; text-decoration-color: initial; float: none; display: inline !important;&quot;&gt;🦜️&lt;/span&gt;" style="text;whiteSpace=wrap;html=1;fontSize=40;" parent="1" vertex="1">
          <mxGeometry x="-350" y="-565" width="50" height="60" as="geometry" />
        </mxCell>
        <mxCell id="KlQcQ2Sua3LDSV9qlgWr-2" value="Android" style="shape=image;verticalLabelPosition=bottom;labelBackgroundColor=default;verticalAlign=top;aspect=fixed;imageAspect=0;editableCssRules=.*;image=data:image/svg+xml,PHN2ZyB4bWxucz0iaHR0cDovL3d3dy53My5vcmcvMjAwMC9zdmciIGhlaWdodD0iNTAwLjM0NzUxODkyMDg5ODQ0IiB3aWR0aD0iNDAwIiB2aWV3Qm94PSI1IC0wLjAzNDc1MTI5NjA0MzM5NTk5NiA0MCA1MC4wMzQ3NTE4OTIwODk4NDQiPjxwYXRoIGQ9Ik0gMTYuMzc1IC0wLjAzMTI1IEMgMTYuMzMyMDMxIC0wLjAyMzQzNzUgMTYuMjg5MDYzIC0wLjAxMTcxODggMTYuMjUgMCBDIDE1LjkyMTg3NSAwLjA3NDIxODggMTUuNjUyMzQ0IDAuMzA0Njg4IDE1LjUzMTI1IDAuNjIxMDk0IEMgMTUuNDEwMTU2IDAuOTM3NSAxNS40NTcwMzEgMS4yODkwNjMgMTUuNjU2MjUgMS41NjI1IEwgMTcuNzgxMjUgNC43NSBDIDE0LjE4MzU5NCA2LjY0MDYyNSAxMS42MDE1NjMgOS45MDIzNDQgMTEgMTMuNzgxMjUgQyAxMSAxMy43OTI5NjkgMTEgMTMuODAwNzgxIDExIDEzLjgxMjUgQyAxMSAxMy44MjQyMTkgMTEgMTMuODMyMDMxIDExIDEzLjg0Mzc1IEMgMTEgMTMuODc1IDExIDEzLjkwNjI1IDExIDEzLjkzNzUgQyAxMSAxMy45NTcwMzEgMTEgMTMuOTgwNDY5IDExIDE0IEMgMTAuOTk2MDk0IDE0LjA1MDc4MSAxMC45OTYwOTQgMTQuMTA1NDY5IDExIDE0LjE1NjI1IEwgMTEgMTUuNTYyNSBDIDEwLjQwNjI1IDE1LjIxNDg0NCA5LjczNDM3NSAxNSA5IDE1IEMgNi44MDA3ODEgMTUgNSAxNi44MDA3ODEgNSAxOSBMIDUgMzEgQyA1IDMzLjE5OTIxOSA2LjgwMDc4MSAzNSA5IDM1IEMgOS43MzQzNzUgMzUgMTAuNDA2MjUgMzQuNzg1MTU2IDExIDM0LjQzNzUgTCAxMSAzNyBDIDExIDM4LjY0NDUzMSAxMi4zNTU0NjkgNDAgMTQgNDAgTCAxNSA0MCBMIDE1IDQ2IEMgMTUgNDguMTk5MjE5IDE2LjgwMDc4MSA1MCAxOSA1MCBDIDIxLjE5OTIxOSA1MCAyMyA0OC4xOTkyMTkgMjMgNDYgTCAyMyA0MCBMIDI3IDQwIEwgMjcgNDYgQyAyNyA0OC4xOTkyMTkgMjguODAwNzgxIDUwIDMxIDUwIEMgMzMuMTk5MjE5IDUwIDM1IDQ4LjE5OTIxOSAzNSA0NiBMIDM1IDQwIEwgMzYgNDAgQyAzNy42NDQ1MzEgNDAgMzkgMzguNjQ0NTMxIDM5IDM3IEwgMzkgMzQuNDM3NSBDIDM5LjU5Mzc1IDM0Ljc4NTE1NiA0MC4yNjU2MjUgMzUgNDEgMzUgQyA0My4xOTkyMTkgMzUgNDUgMzMuMTk5MjE5IDQ1IDMxIEwgNDUgMTkgQyA0NSAxNi44MDA3ODEgNDMuMTk5MjE5IDE1IDQxIDE1IEMgNDAuMjY1NjI1IDE1IDM5LjU5Mzc1IDE1LjIxNDg0NCAzOSAxNS41NjI1IEwgMzkgMTQuMTg3NSBDIDM5LjAxMTcxOSAxNC4wOTM3NSAzOS4wMTE3MTkgMTQgMzkgMTMuOTA2MjUgQyAzOSAxMy44OTQ1MzEgMzkgMTMuODg2NzE5IDM5IDEzLjg3NSBDIDM5IDEzLjg2MzI4MSAzOSAxMy44NTU0NjkgMzkgMTMuODQzNzUgQyAzOC40MTc5NjkgOS45Mzc1IDM1LjgzNTkzOCA2LjY0ODQzOCAzMi4yMTg3NSA0Ljc1IEwgMzQuMzQzNzUgMS41NjI1IEMgMzQuNTg5ODQ0IDEuMjI2NTYzIDM0LjU5NzY1NiAwLjc3MzQzOCAzNC4zNjcxODggMC40MjU3ODEgQyAzNC4xNDA2MjUgMC4wNzgxMjUgMzMuNzE4NzUgLTAuMDkzNzUgMzMuMzEyNSAwIEMgMzMuMDU0Njg4IDAuMDU4NTkzOCAzMi44MjgxMjUgMC4yMTQ4NDQgMzIuNjg3NSAwLjQzNzUgTCAzMC4zNDM3NSAzLjkwNjI1IEMgMjguNjk1MzEzIDMuMzEyNSAyNi44ODI4MTMgMyAyNSAzIEMgMjMuMTE3MTg4IDMgMjEuMzA0Njg4IDMuMzEyNSAxOS42NTYyNSAzLjkwNjI1IEwgMTcuMzEyNSAwLjQzNzUgQyAxNy4xMTMyODEgMC4xMTcxODggMTYuNzUgLTAuMDYyNSAxNi4zNzUgLTAuMDMxMjUgWiBNIDI1IDUgQyAyNi44Nzg5MDYgNSAyOC42NDA2MjUgNS4zNjcxODggMzAuMTg3NSA2LjAzMTI1IEMgMzAuMjE4NzUgNi4wNDI5NjkgMzAuMjUgNi4wNTQ2ODggMzAuMjgxMjUgNi4wNjI1IEMgMzMuNDEwMTU2IDcuNDMzNTk0IDM1LjY4NzUgMTAgMzYuNTYyNSAxMyBMIDEzLjQzNzUgMTMgQyAxNC4zMDA3ODEgMTAuMDQyOTY5IDE2LjUzMTI1IDcuNTA3ODEzIDE5LjU5Mzc1IDYuMTI1IEMgMTkuNjYwMTU2IDYuMTAxNTYzIDE5LjcyMjY1NiA2LjA3MDMxMyAxOS43ODEyNSA2LjAzMTI1IEMgMjEuMzM1OTM4IDUuMzU5Mzc1IDIzLjEwOTM3NSA1IDI1IDUgWiBNIDE5LjUgOCBDIDE4LjY2Nzk2OSA4IDE4IDguNjcxODc1IDE4IDkuNSBDIDE4IDEwLjMzMjAzMSAxOC42Njc5NjkgMTEgMTkuNSAxMSBDIDIwLjMyODEyNSAxMSAyMSAxMC4zMzIwMzEgMjEgOS41IEMgMjEgOC42NzE4NzUgMjAuMzI4MTI1IDggMTkuNSA4IFogTSAzMC41IDggQyAyOS42NzE4NzUgOCAyOSA4LjY3MTg3NSAyOSA5LjUgQyAyOSAxMC4zMzIwMzEgMjkuNjcxODc1IDExIDMwLjUgMTEgQyAzMS4zMzIwMzEgMTEgMzIgMTAuMzMyMDMxIDMyIDkuNSBDIDMyIDguNjcxODc1IDMxLjMzMjAzMSA4IDMwLjUgOCBaIE0gMTMgMTUgTCAzNyAxNSBMIDM3IDM3IEMgMzcgMzcuNTYyNSAzNi41NjI1IDM4IDM2IDM4IEwgMjguMTg3NSAzOCBDIDI4LjA1NDY4OCAzNy45NzI2NTYgMjcuOTE0MDYzIDM3Ljk3MjY1NiAyNy43ODEyNSAzOCBMIDE2LjE4NzUgMzggQyAxNi4wNTQ2ODggMzcuOTcyNjU2IDE1LjkxNDA2MyAzNy45NzI2NTYgMTUuNzgxMjUgMzggTCAxNCAzOCBDIDEzLjQzNzUgMzggMTMgMzcuNTYyNSAxMyAzNyBaIE0gOSAxNyBDIDEwLjExNzE4OCAxNyAxMSAxNy44ODI4MTMgMTEgMTkgTCAxMSAzMSBDIDExIDMyLjExNzE4OCAxMC4xMTcxODggMzMgOSAzMyBDIDcuODgyODEzIDMzIDcgMzIuMTE3MTg4IDcgMzEgTCA3IDE5IEMgNyAxNy44ODI4MTMgNy44ODI4MTMgMTcgOSAxNyBaIE0gNDEgMTcgQyA0Mi4xMTcxODggMTcgNDMgMTcuODgyODEzIDQzIDE5IEwgNDMgMzEgQyA0MyAzMi4xMTcxODggNDIuMTE3MTg4IDMzIDQxIDMzIEMgMzkuODgyODEzIDMzIDM5IDMyLjExNzE4OCAzOSAzMSBMIDM5IDE5IEMgMzkgMTcuODgyODEzIDM5Ljg4MjgxMyAxNyA0MSAxNyBaIE0gMTcgNDAgTCAyMSA0MCBMIDIxIDQ2IEMgMjEgNDcuMTE3MTg4IDIwLjExNzE4OCA0OCAxOSA0OCBDIDE3Ljg4MjgxMyA0OCAxNyA0Ny4xMTcxODggMTcgNDYgWiBNIDI5IDQwIEwgMzMgNDAgTCAzMyA0NiBDIDMzIDQ3LjExNzE4OCAzMi4xMTcxODggNDggMzEgNDggQyAyOS44ODI4MTMgNDggMjkgNDcuMTE3MTg4IDI5IDQ2IFoiLz48L3N2Zz4=;fontSize=10;" vertex="1" parent="1">
          <mxGeometry x="-311" y="-351.99500000000006" width="32" height="40" as="geometry" />
        </mxCell>
        <mxCell id="KlQcQ2Sua3LDSV9qlgWr-4" value="" style="shape=note;whiteSpace=wrap;html=1;backgroundOutline=1;darkOpacity=0.05;size=12;" vertex="1" parent="1">
          <mxGeometry x="-550" y="-414" width="30" height="40" as="geometry" />
        </mxCell>
        <mxCell id="KlQcQ2Sua3LDSV9qlgWr-5" value="DMG" style="rounded=1;whiteSpace=wrap;html=1;" vertex="1" parent="1">
          <mxGeometry x="-540.5" y="-398" width="30" height="20" as="geometry" />
        </mxCell>
        <mxCell id="KlQcQ2Sua3LDSV9qlgWr-10" value="iOS" style="shape=image;verticalLabelPosition=bottom;labelBackgroundColor=none;verticalAlign=top;aspect=fixed;imageAspect=0;image=data:image/svg+xml,PHN2ZyB4bWxuczp4bGluaz0iaHR0cDovL3d3dy53My5vcmcvMTk5OS94bGluayIgeG1sbnM9Imh0dHA6Ly93d3cudzMub3JnLzIwMDAvc3ZnIiBwcmVzZXJ2ZUFzcGVjdFJhdGlvPSJ4TWlkWU1pZCIgdmVyc2lvbj0iMS4xIiB2aWV3Qm94PSIwIDAgMjU2IDMxNC40MDAyMDc1MTk1MzEyNSIgaGVpZ2h0PSIzMTQuNDAwMjA3NTE5NTMxMjUiIHdpZHRoPSIyNTYiPiYjeGE7ICAgIDxnPiYjeGE7ICAgICAgICA8cGF0aCBmaWxsPSIjMDAwMDAwIiBkPSJNMjEzLjgwMzM5NCwxNjcuMDMwOTQzIEMyMTQuMjQ1MiwyMTQuNjA5NjQ2IDI1NS41NDI0ODIsMjMwLjQ0MjYzOSAyNTYsMjMwLjY0NDcyNyBDMjU1LjY1MDgxMiwyMzEuNzYxMzU3IDI0OS40MDEzODMsMjUzLjIwODI5MyAyMzQuMjQyNjMsMjc1LjM2MTQ0NiBDMjIxLjEzODU1NSwyOTQuNTEzOTY5IDIwNy41MzgyNTMsMzEzLjU5NjMzMyAxODYuMTEzNzU5LDMxMy45OTE1NDUgQzE2NS4wNjIwNTEsMzE0LjM3OTQ0MiAxNTguMjkyNzUyLDMwMS41MDc4MjggMTM0LjIyNDY5LDMwMS41MDc4MjggQzExMC4xNjM4OTgsMzAxLjUwNzgyOCAxMDIuNjQyODk5LDMxMy41OTYzMDEgODIuNzE1MTEyNiwzMTQuMzc5NDQyIEM2Mi4wMzUwNDA3LDMxNS4xNjIwMSA0Ni4yODczODMxLDI5My42Njg1MjUgMzMuMDc0NDA3OSwyNzQuNTg2MTYyIEM2LjA3NTI5MzE3LDIzNS41NTI1NDQgLTE0LjU1NzYxNjksMTY0LjI4NjMyOCAxMy4xNDcxNjYsMTE2LjE4MDQ3IEMyNi45MTAzMTExLDkyLjI5MDkwNTMgNTEuNTA2MDkxNyw3Ny4xNjMwMzU2IDc4LjIwMjYxMjUsNzYuNzc1MTA5NiBDOTguNTA5OTE0NSw3Ni4zODc3NDU2IDExNy42Nzc1OTQsOTAuNDM3MTg1MSAxMzAuMDkxNzA1LDkwLjQzNzE4NTEgQzE0Mi40OTc5NDUsOTAuNDM3MTg1MSAxNjUuNzkwNzU1LDczLjU0MTUwMjkgMTkwLjI3NzYyNyw3Ni4wMjI4NDc0IEMyMDAuNTI4NjY4LDc2LjQ0OTUwNTUgMjI5LjMwMzUwOSw4MC4xNjM2ODc4IDI0Ny43ODA2MjUsMTA3LjIwOTM4OSBDMjQ2LjI5MTgyNSwxMDguMTMyMzMzIDIxMy40NDYzNSwxMjcuMjUzNDA1IDIxMy44MDMzOTQsMTY3LjAzMDk4OCBNMTc0LjIzOTE0Miw1MC4xOTg3MDMzIEMxODUuMjE4MzMxLDM2LjkwODgzMTkgMTkyLjYwNzk1OCwxOC40MDgxMDE5IDE5MC41OTE5ODgsMCBDMTc0Ljc2NjMxMiwwLjYzNjA1MDIyNSAxNTUuNjI5NTE0LDEwLjU0NTc5MDkgMTQ0LjI3ODEwOSwyMy44MjgzNTA2IEMxMzQuMTA1MDcsMzUuNTkwNjc1OCAxMjUuMTk1Nzc1LDU0LjQxNzAyNzUgMTI3LjU5OTY1Nyw3Mi40NjA3OTMyIEMxNDUuMjM5MjMxLDczLjgyNTU0MzMgMTYzLjI1OTQxMyw2My40OTcwMjYyIDE3NC4yMzkxNDIsNTAuMTk4NzI0OSIvPiYjeGE7ICAgIDwvZz4mI3hhOzwvc3ZnPg==;rounded=0;html=1;fontSize=10;" vertex="1" parent="1">
          <mxGeometry x="-366.3" y="-351.99500000000006" width="32.61" height="40" as="geometry" />
        </mxCell>
        <mxCell id="KlQcQ2Sua3LDSV9qlgWr-11" value="" style="shape=note;whiteSpace=wrap;html=1;backgroundOutline=1;darkOpacity=0.05;size=12;" vertex="1" parent="1">
          <mxGeometry x="-490" y="-414" width="30" height="40" as="geometry" />
        </mxCell>
        <mxCell id="KlQcQ2Sua3LDSV9qlgWr-12" value="MSI" style="rounded=1;whiteSpace=wrap;html=1;" vertex="1" parent="1">
          <mxGeometry x="-480.5" y="-398" width="30" height="20" as="geometry" />
        </mxCell>
        <mxCell id="KlQcQ2Sua3LDSV9qlgWr-13" value="" style="shape=note;whiteSpace=wrap;html=1;backgroundOutline=1;darkOpacity=0.05;size=12;" vertex="1" parent="1">
          <mxGeometry x="-433" y="-414" width="30" height="40" as="geometry" />
        </mxCell>
        <mxCell id="KlQcQ2Sua3LDSV9qlgWr-14" value="DEB" style="rounded=1;whiteSpace=wrap;html=1;" vertex="1" parent="1">
          <mxGeometry x="-423.5" y="-398" width="30" height="20" as="geometry" />
        </mxCell>
        <mxCell id="KlQcQ2Sua3LDSV9qlgWr-15" value="" style="shape=note;whiteSpace=wrap;html=1;backgroundOutline=1;darkOpacity=0.05;size=12;" vertex="1" parent="1">
          <mxGeometry x="-371.5" y="-414" width="30" height="40" as="geometry" />
        </mxCell>
        <mxCell id="KlQcQ2Sua3LDSV9qlgWr-16" value="IPA" style="rounded=1;whiteSpace=wrap;html=1;" vertex="1" parent="1">
          <mxGeometry x="-362" y="-398" width="30" height="20" as="geometry" />
        </mxCell>
        <mxCell id="KlQcQ2Sua3LDSV9qlgWr-17" value="" style="shape=note;whiteSpace=wrap;html=1;backgroundOutline=1;darkOpacity=0.05;size=12;" vertex="1" parent="1">
          <mxGeometry x="-310" y="-414" width="30" height="40" as="geometry" />
        </mxCell>
        <mxCell id="KlQcQ2Sua3LDSV9qlgWr-18" value="APK" style="rounded=1;whiteSpace=wrap;html=1;" vertex="1" parent="1">
          <mxGeometry x="-300.5" y="-398" width="30" height="20" as="geometry" />
        </mxCell>
      </root>
    </mxGraphModel>
  </diagram>
</mxfile>
